999
dxfrw 0.5.11
0
SECTION
2
HEADER
9
$ACADVER
1
AC1021
9
$HANDSEED
5
20000
9
$DWGCODEPAGE
3
ANSI_1252
9
$INSBASE
10
0
20
0
30
0
9
$EXTMIN
10
0
20
0
30
0
9
$EXTMAX
10
1150
20
180
30
0
9
$LIMMIN
10
0
20
0
9
$LIMMAX
10
420
20
297
9
$ORTHOMODE
70
0
9
$LTSCALE
40
1
9
$TEXTSTYLE
7
STANDARD
9
$CLAYER
8
markings
9
$DIMASZ
40
2.5
9
$DIMLFAC
40
1
9
$DIMSCALE
40
1
9
$DIMEXO
40
0.625
9
$DIMEXE
40
1.25
9
$DIMTXT
40
2.5
9
$DIMTSZ
40
0
9
$DIMAUNIT
70
0
9
$DIMADEC
70
0
9
$DIMLUNIT
70
2
9
$DIMSTYLE
2
STANDARD
9
$DIMGAP
40
0.625
9
$DIMTIH
70
0
9
$LUNITS
70
2
9
$LUPREC
70
4
9
$AUNITS
70
0
9
$AUPREC
70
2
9
$SPLINESEGS
70
8
9
$GRIDMODE
70
1
9
$SNAPSTYLE
70
0
9
$PINSBASE
10
0
20
0
30
0
9
$PLIMMIN
10
0
20
0
9
$PLIMMAX
10
210
20
297
9
$INSUNITS
70
4
9
$PSVPSCALE
40
1
0
ENDSEC
0
SECTION
2
CLASSES
0
ENDSEC
0
SECTION
2
TABLES
0
TABLE
2
VPORT
5
8
330
0
100
AcDbSymbolTable
70
1
0
VPORT
5
31
330
2
100
AcDbSymbolTableRecord
100
AcDbViewportTableRecord
2
*ACTIVE
70
0
10
0
20
0
11
1
21
1
12
779.169718956
22
184.364569475
13
0
23
0
14
10
24
10
15
10
25
10
16
0
26
0
36
1
17
0
27
0
37
0
40
892.624838632
41
2.09345794393
42
50
43
0
44
0
50
0
51
0
71
0
72
100
73
1
74
3
75
0
76
1
77
0
78
0
281
0
65
1
110
0
120
0
130
0
111
1
121
0
131
0
112
0
122
1
132
0
79
0
146
0
348
10020
60
7
61
5
292
1
282
1
141
0
142
0
63
250
421
3358443
0
ENDTAB
0
TABLE
2
LTYPE
5
5
330
0
100
AcDbSymbolTable
70
4
0
LTYPE
5
14
330
5
100
AcDbSymbolTableRecord
100
AcDbLinetypeTableRecord
2
ByBlock
70
0
3

72
65
73
0
40
0
0
LTYPE
5
15
330
5
100
AcDbSymbolTableRecord
100
AcDbLinetypeTableRecord
2
ByLayer
70
0
3

72
65
73
0
40
0
0
LTYPE
5
16
330
5
100
AcDbSymbolTableRecord
100
AcDbLinetypeTableRecord
2
Continuous
70
0
3
Solid line
72
65
73
0
40
0
0
LTYPE
5
32
330
5
100
AcDbSymbolTableRecord
100
AcDbLinetypeTableRecord
2
DOT
70
0
3
Dot . . . . . . . . . . . . . . . . . . . . . .
72
65
73
2
40
6.35
49
0
74
0
49
-6.35
74
0
0
LTYPE
5
33
330
5
100
AcDbSymbolTableRecord
100
AcDbLinetypeTableRecord
2
DOT2
70
0
3
Dot (.5x) .....................................
72
65
73
2
40
3.175
49
0
74
0
49
-3.175
74
0
0
LTYPE
5
34
330
5
100
AcDbSymbolTableRecord
100
AcDbLinetypeTableRecord
2
DOTX2
70
0
3
Dot (2x) .  .  .  .  .  .  .  .  .  .  .  .  .
72
65
73
2
40
12.7
49
0
74
0
49
-12.7
74
0
0
LTYPE
5
35
330
5
100
AcDbSymbolTableRecord
100
AcDbLinetypeTableRecord
2
DASHED
70
0
3
Dot . . . . . . . . . . . . . . . . . . . . . .
72
65
73
2
40
19.05
49
12.7
74
0
49
-6.35
74
0
0
LTYPE
5
36
330
5
100
AcDbSymbolTableRecord
100
AcDbLinetypeTableRecord
2
DASHED2
70
0
3
Dashed (.5x) _ _ _ _ _ _ _ _ _ _ _ _ _ _ _ _ _
72
65
73
2
40
9.525
49
6.35
74
0
49
-3.175
74
0
0
LTYPE
5
37
330
5
100
AcDbSymbolTableRecord
100
AcDbLinetypeTableRecord
2
DASHEDX2
70
0
3
Dashed (2x) ____  ____  ____  ____  ____  ___
72
65
73
2
40
38.1
49
25.4
74
0
49
-12.7
74
0
0
LTYPE
5
38
330
5
100
AcDbSymbolTableRecord
100
AcDbLinetypeTableRecord
2
DASHDOT
70
0
3
Dash dot __ . __ . __ . __ . __ . __ . __ . __
72
65
73
4
40
25.4
49
12.7
74
0
49
-6.35
74
0
49
0
74
0
49
-6.35
74
0
0
LTYPE
5
39
330
5
100
AcDbSymbolTableRecord
100
AcDbLinetypeTableRecord
2
DASHDOT2
70
0
3
Dash dot (.5x) _._._._._._._._._._._._._._._.
72
65
73
4
40
12.7
49
6.35
74
0
49
-3.175
74
0
49
0
74
0
49
-3.175
74
0
0
LTYPE
5
3A
330
5
100
AcDbSymbolTableRecord
100
AcDbLinetypeTableRecord
2
DASHDOTX2
70
0
3
Dash dot (2x) ____  .  ____  .  ____  .  ___
72
65
73
4
40
50.8
49
25.4
74
0
49
-12.7
74
0
49
0
74
0
49
-12.7
74
0
0
LTYPE
5
3B
330
5
100
AcDbSymbolTableRecord
100
AcDbLinetypeTableRecord
2
DIVIDE
70
0
3
Divide ____ . . ____ . . ____ . . ____ . . ____
72
65
73
6
40
31.75
49
12.7
74
0
49
-6.35
74
0
49
0
74
0
49
-6.35
74
0
49
0
74
0
49
-6.35
74
0
0
LTYPE
5
3C
330
5
100
AcDbSymbolTableRecord
100
AcDbLinetypeTableRecord
2
DIVIDE2
70
0
3
Divide (.5x) __..__..__..__..__..__..__..__.._
72
65
73
6
40
15.875
49
6.35
74
0
49
-3.175
74
0
49
0
74
0
49
-3.175
74
0
49
0
74
0
49
-3.175
74
0
0
LTYPE
5
3D
330
5
100
AcDbSymbolTableRecord
100
AcDbLinetypeTableRecord
2
DIVIDEX2
70
0
3
Divide (2x) ________  .  .  ________  .  .  _
72
65
73
6
40
63.5
49
25.4
74
0
49
-12.7
74
0
49
0
74
0
49
-12.7
74
0
49
0
74
0
49
-12.7
74
0
0
LTYPE
5
3E
330
5
100
AcDbSymbolTableRecord
100
AcDbLinetypeTableRecord
2
BORDER
70
0
3
Border __ __ . __ __ . __ __ . __ __ . __ __ .
72
65
73
6
40
44.45
49
12.7
74
0
49
-6.35
74
0
49
12.7
74
0
49
-6.35
74
0
49
0
74
0
49
-6.35
74
0
0
LTYPE
5
3F
330
5
100
AcDbSymbolTableRecord
100
AcDbLinetypeTableRecord
2
BORDER2
70
0
3
Border (.5x) __.__.__.__.__.__.__.__.__.__.__.
72
65
73
6
40
22.225
49
6.35
74
0
49
-3.175
74
0
49
6.35
74
0
49
-3.175
74
0
49
0
74
0
49
-3.175
74
0
0
LTYPE
5
40
330
5
100
AcDbSymbolTableRecord
100
AcDbLinetypeTableRecord
2
BORDERX2
70
0
3
Border (2x) ____  ____  .  ____  ____  .  ___
72
65
73
6
40
88.9
49
25.4
74
0
49
-12.7
74
0
49
25.4
74
0
49
-12.7
74
0
49
0
74
0
49
-12.7
74
0
0
LTYPE
5
41
330
5
100
AcDbSymbolTableRecord
100
AcDbLinetypeTableRecord
2
CENTER
70
0
3
Center ____ _ ____ _ ____ _ ____ _ ____ _ ____
72
65
73
4
40
50.8
49
31.75
74
0
49
-6.35
74
0
49
6.35
74
0
49
-6.35
74
0
0
LTYPE
5
42
330
5
100
AcDbSymbolTableRecord
100
AcDbLinetypeTableRecord
2
CENTER2
70
0
3
Center (.5x) ___ _ ___ _ ___ _ ___ _ ___ _ ___
72
65
73
4
40
28.575
49
19.05
74
0
49
-3.175
74
0
49
3.175
74
0
49
-3.175
74
0
0
LTYPE
5
43
330
5
100
AcDbSymbolTableRecord
100
AcDbLinetypeTableRecord
2
CENTERX2
70
0
3
Center (2x) ________  __  ________  __  _____
72
65
73
4
40
101.6
49
63.5
74
0
49
-12.7
74
0
49
12.7
74
0
49
-12.7
74
0
0
ENDTAB
0
TABLE
2
LAYER
5
2
330
0
100
AcDbSymbolTable
70
1
0
LAYER
5
10
330
2
100
AcDbSymbolTableRecord
100
AcDbLayerTableRecord
2
0
70
0
62
7
6
CONTINUOUS
370
0
390
F
0
LAYER
5
44
330
2
100
AcDbSymbolTableRecord
100
AcDbLayerTableRecord
2
markings
70
0
62
2
6
CONTINUOUS
370
0
390
F
0
ENDTAB
0
TABLE
2
STYLE
5
3
330
0
100
AcDbSymbolTable
70
3
0
STYLE
5
45
330
2
100
AcDbSymbolTableRecord
100
AcDbTextStyleTableRecord
2
romanc
70
0
40
0
41
1
50
0
71
0
42
1
3
romanc
4

0
STYLE
5
46
330
2
100
AcDbSymbolTableRecord
100
AcDbTextStyleTableRecord
2
Standard
70
0
40
0
41
1
50
0
71
0
42
1
3
txt
4

0
ENDTAB
0
TABLE
2
VIEW
5
6
330
0
100
AcDbSymbolTable
70
0
0
ENDTAB
0
TABLE
2
UCS
5
7
330
0
100
AcDbSymbolTable
70
0
0
ENDTAB
0
TABLE
2
APPID
5
9
330
0
100
AcDbSymbolTable
70
1
0
APPID
5
12
330
9
100
AcDbSymbolTableRecord
100
AcDbRegAppTableRecord
2
ACAD
70
0
0
ENDTAB
0
TABLE
2
DIMSTYLE
5
A
330
0
100
AcDbSymbolTable
70
1
100
AcDbDimStyleTable
71
1
0
DIMSTYLE
105
47
330
A
100
AcDbSymbolTableRecord
100
AcDbDimStyleTableRecord
2
Standard
70
0
40
1
41
2.5
42
0.625
43
0.38
44
1.25
45
0
46
0
47
0
48
0
140
2.5
141
0.09
142
0
143
25.4
144
1
145
0
146
1
147
0.625
148
0
71
0
72
0
73
0
74
1
75
0
76
0
77
0
78
0
79
0
170
0
171
2
172
0
173
0
174
0
175
0
176
0
177
0
178
0
179
0
271
4
272
4
273
2
274
2
275
0
276
0
277
2
278
46
279
0
280
0
281
0
282
0
283
1
284
0
285
0
286
0
288
0
289
3
340
Standard
341

371
-2
372
-2
0
ENDTAB
0
TABLE
2
BLOCK_RECORD
5
1
330
0
100
AcDbSymbolTable
70
2
0
BLOCK_RECORD
5
1F
330
1
100
AcDbSymbolTableRecord
100
AcDbBlockTableRecord
2
*Model_Space
70
0
280
1
281
0
0
BLOCK_RECORD
5
1E
330
1
100
AcDbSymbolTableRecord
100
AcDbBlockTableRecord
2
*Paper_Space
70
0
280
1
281
0
0
ENDTAB
0
ENDSEC
0
SECTION
2
BLOCKS
0
BLOCK
5
20
330
1F
100
AcDbEntity
8
0
100
AcDbBlockBegin
2
*Model_Space
70
0
10
0
20
0
30
0
3
*Model_Space
1

0
ENDBLK
5
21
330
1F
100
AcDbEntity
8
0
100
AcDbBlockEnd
0
BLOCK
5
1C
330
1B
100
AcDbEntity
8
0
100
AcDbBlockBegin
2
*Paper_Space
70
0
10
0
20
0
30
0
3
*Paper_Space
1

0
ENDBLK
5
1D
330
1F
100
AcDbEntity
8
0
100
AcDbBlockEnd
0
ENDSEC
0
SECTION
2
ENTITIES
0
LINE
5
48
100
AcDbEntity
8
0
6
ByLayer
62
256
370
-1
100
AcDbLine
10
100
20
180
11
100
21
0
0
CIRCLE
5
49
100
AcDbEntity
8
0
6
ByLayer
62
256
370
-1
100
AcDbCircle
10
105
20
5
40
1.5
0
LINE
5
4A
100
AcDbEntity
8
0
6
ByLayer
62
256
370
-1
100
AcDbLine
10
160
20
0
11
160
21
180
0
CIRCLE
5
4B
100
AcDbEntity
8
0
6
ByLayer
62
256
370
-1
100
AcDbCircle
10
155
20
175
40
1.5
0
LINE
5
4C
100
AcDbEntity
8
0
6
ByLayer
62
256
370
-1
100
AcDbLine
10
200
20
180
11
200
21
0
0
CIRCLE
5
4D
100
AcDbEntity
8
0
6
ByLayer
62
256
370
-1
100
AcDbCircle
10
205
20
5
40
1.5
0
LINE
5
4E
100
AcDbEntity
8
0
6
ByLayer
62
256
370
-1
100
AcDbLine
10
260
20
0
11
260
21
180
0
CIRCLE
5
4F
100
AcDbEntity
8
0
6
ByLayer
62
256
370
-1
100
AcDbCircle
10
255
20
175
40
1.5
0
CIRCLE
5
50
100
AcDbEntity
8
0
6
ByLayer
62
256
370
-1
100
AcDbCircle
10
215
20
148
40
3.3
0
LINE
5
51
100
AcDbEntity
8
markings
6
ByLayer
62
256
370
-1
100
AcDbLine
10
215
20
148
11
202
21
148
0
LINE
5
52
100
AcDbEntity
8
markings
6
ByLayer
62
256
370
-1
100
AcDbLine
10
215
20
148
11
203.741669751
21
141.5
0
LINE
5
53
100
AcDbEntity
8
markings
6
ByLayer
62
256
370
-1
100
AcDbLine
10
215
20
148
11
208.5
21
136.741669751
0
LINE
5
54
100
AcDbEntity
8
markings
6
ByLayer
62
256
370
-1
100
AcDbLine
10
215
20
148
11
221.5
21
136.741669751
0
LINE
5
55
100
AcDbEntity
8
markings
6
ByLayer
62
256
370
-1
100
AcDbLine
10
215
20
148
11
228
21
148
0
LINE
5
56
100
AcDbEntity
8
markings
6
ByLayer
62
256
370
-1
100
AcDbLine
10
215
20
148
11
226.258330249
21
154.5
0
LINE
5
57
100
AcDbEntity
8
markings
6
ByLayer
62
256
370
-1
100
AcDbLine
10
215
20
148
11
215
21
161
0
LINE
5
58
100
AcDbEntity
8
markings
6
ByLayer
62
256
370
-1
100
AcDbLine
10
215
20
148
11
208.5
21
159.258330249
0
LINE
5
59
100
AcDbEntity
8
markings
6
ByLayer
62
256
370
-1
100
AcDbLine
10
215
20
148
11
203.741669751
21
154.5
0
LINE
5
5A
100
AcDbEntity
8
markings
6
ByLayer
62
256
370
-1
100
AcDbLine
10
215
20
148
11
221.5
21
159.258
0
CIRCLE
5
5B
100
AcDbEntity
8
0
6
ByLayer
62
256
370
-1
100
AcDbCircle
10
245
20
131
40
3.3
0
LINE
5
5C
100
AcDbEntity
8
markings
6
ByLayer
62
256
370
-1
100
AcDbLine
10
245
20
131
11
232
21
131
0
LINE
5
5D
100
AcDbEntity
8
markings
6
ByLayer
62
256
370
-1
100
AcDbLine
10
245
20
131
11
238.5
21
119.741669751
0
LINE
5
5E
100
AcDbEntity
8
markings
6
ByLayer
62
256
370
-1
100
AcDbLine
10
245
20
131
11
251.5
21
119.741669751
0
LINE
5
5F
100
AcDbEntity
8
markings
6
ByLayer
62
256
370
-1
100
AcDbLine
10
245
20
131
11
256.258330249
21
124.5
0
LINE
5
60
100
AcDbEntity
8
markings
6
ByLayer
62
256
370
-1
100
AcDbLine
10
245
20
131
11
258
21
131
0
LINE
5
61
100
AcDbEntity
8
markings
6
ByLayer
62
256
370
-1
100
AcDbLine
10
245
20
131
11
256.258330249
21
137.5
0
LINE
5
62
100
AcDbEntity
8
markings
6
ByLayer
62
256
370
-1
100
AcDbLine
10
245
20
131
11
245
21
144
0
LINE
5
63
100
AcDbEntity
8
markings
6
ByLayer
62
256
370
-1
100
AcDbLine
10
245
20
131
11
238.5
21
142.258330249
0
LINE
5
64
100
AcDbEntity
8
markings
6
ByLayer
62
256
370
-1
100
AcDbLine
10
245
20
131
11
251.5
21
142.258
0
LINE
5
65
100
AcDbEntity
8
markings
6
ByLayer
62
256
370
-1
100
AcDbLine
10
245
20
131
11
215
21
148
0
CIRCLE
5
66
100
AcDbEntity
8
0
6
ByLayer
62
256
370
-1
100
AcDbCircle
10
215
20
114
40
3.3
0
LINE
5
67
100
AcDbEntity
8
markings
6
ByLayer
62
256
370
-1
100
AcDbLine
10
215
20
114
11
202
21
114
0
LINE
5
68
100
AcDbEntity
8
markings
6
ByLayer
62
256
370
-1
100
AcDbLine
10
215
20
114
11
203.741669751
21
107.5
0
LINE
5
69
100
AcDbEntity
8
markings
6
ByLayer
62
256
370
-1
100
AcDbLine
10
215
20
114
11
208.5
21
102.741669751
0
LINE
5
6A
100
AcDbEntity
8
markings
6
ByLayer
62
256
370
-1
100
AcDbLine
10
215
20
114
11
221.5
21
102.741669751
0
LINE
5
6B
100
AcDbEntity
8
markings
6
ByLayer
62
256
370
-1
100
AcDbLine
10
215
20
114
11
228
21
114
0
LINE
5
6C
100
AcDbEntity
8
markings
6
ByLayer
62
256
370
-1
100
AcDbLine
10
215
20
114
11
215
21
127
0
LINE
5
6D
100
AcDbEntity
8
markings
6
ByLayer
62
256
370
-1
100
AcDbLine
10
215
20
114
11
208.5
21
125.258330249
0
LINE
5
6E
100
AcDbEntity
8
markings
6
ByLayer
62
256
370
-1
100
AcDbLine
10
215
20
114
11
203.741669751
21
120.5
0
LINE
5
6F
100
AcDbEntity
8
markings
6
ByLayer
62
256
370
-1
100
AcDbLine
10
215
20
114
11
221.5
21
125.258
0
CIRCLE
5
70
100
AcDbEntity
8
0
6
ByLayer
62
256
370
-1
100
AcDbCircle
10
245
20
97
40
3.3
0
LINE
5
71
100
AcDbEntity
8
markings
6
ByLayer
62
256
370
-1
100
AcDbLine
10
245
20
97
11
232
21
97
0
LINE
5
72
100
AcDbEntity
8
markings
6
ByLayer
62
256
370
-1
100
AcDbLine
10
245
20
97
11
238.5
21
85.741669751
0
LINE
5
73
100
AcDbEntity
8
markings
6
ByLayer
62
256
370
-1
100
AcDbLine
10
245
20
97
11
251.5
21
85.741669751
0
LINE
5
74
100
AcDbEntity
8
markings
6
ByLayer
62
256
370
-1
100
AcDbLine
10
245
20
97
11
256.258330249
21
90.5
0
LINE
5
75
100
AcDbEntity
8
markings
6
ByLayer
62
256
370
-1
100
AcDbLine
10
245
20
97
11
258
21
97
0
LINE
5
76
100
AcDbEntity
8
markings
6
ByLayer
62
256
370
-1
100
AcDbLine
10
245
20
97
11
256.258330249
21
103.5
0
LINE
5
77
100
AcDbEntity
8
markings
6
ByLayer
62
256
370
-1
100
AcDbLine
10
245
20
97
11
245
21
110
0
LINE
5
78
100
AcDbEntity
8
markings
6
ByLayer
62
256
370
-1
100
AcDbLine
10
245
20
97
11
238.5
21
108.258330249
0
LINE
5
79
100
AcDbEntity
8
markings
6
ByLayer
62
256
370
-1
100
AcDbLine
10
245
20
97
11
251.5
21
108.258
0
LINE
5
7A
100
AcDbEntity
8
markings
6
ByLayer
62
256
370
-1
100
AcDbLine
10
245
20
97
11
215
21
114
0
CIRCLE
5
7B
100
AcDbEntity
8
0
6
ByLayer
62
256
370
-1
100
AcDbCircle
10
215
20
81
40
3.3
0
LINE
5
7C
100
AcDbEntity
8
markings
6
ByLayer
62
256
370
-1
100
AcDbLine
10
215
20
81
11
202
21
81
0
LINE
5
7D
100
AcDbEntity
8
markings
6
ByLayer
62
256
370
-1
100
AcDbLine
10
215
20
81
11
203.741669751
21
74.5
0
LINE
5
7E
100
AcDbEntity
8
markings
6
ByLayer
62
256
370
-1
100
AcDbLine
10
215
20
81
11
208.5
21
69.741669751
0
LINE
5
7F
100
AcDbEntity
8
markings
6
ByLayer
62
256
370
-1
100
AcDbLine
10
215
20
81
11
221.5
21
69.741669751
0
LINE
5
80
100
AcDbEntity
8
markings
6
ByLayer
62
256
370
-1
100
AcDbLine
10
215
20
81
11
228
21
81
0
LINE
5
81
100
AcDbEntity
8
markings
6
ByLayer
62
256
370
-1
100
AcDbLine
10
215
20
81
11
215
21
94
0
LINE
5
82
100
AcDbEntity
8
markings
6
ByLayer
62
256
370
-1
100
AcDbLine
10
215
20
81
11
208.5
21
92.258330249
0
LINE
5
83
100
AcDbEntity
8
markings
6
ByLayer
62
256
370
-1
100
AcDbLine
10
215
20
81
11
203.741669751
21
87.5
0
LINE
5
84
100
AcDbEntity
8
markings
6
ByLayer
62
256
370
-1
100
AcDbLine
10
215
20
81
11
221.5
21
92.258
0
CIRCLE
5
85
100
AcDbEntity
8
0
6
ByLayer
62
256
370
-1
100
AcDbCircle
10
245
20
64
40
3.3
0
LINE
5
86
100
AcDbEntity
8
markings
6
ByLayer
62
256
370
-1
100
AcDbLine
10
245
20
64
11
232
21
64
0
LINE
5
87
100
AcDbEntity
8
markings
6
ByLayer
62
256
370
-1
100
AcDbLine
10
245
20
64
11
238.5
21
52.741669751
0
LINE
5
88
100
AcDbEntity
8
markings
6
ByLayer
62
256
370
-1
100
AcDbLine
10
245
20
64
11
251.5
21
52.741669751
0
LINE
5
89
100
AcDbEntity
8
markings
6
ByLayer
62
256
370
-1
100
AcDbLine
10
245
20
64
11
256.258330249
21
57.5
0
LINE
5
8A
100
AcDbEntity
8
markings
6
ByLayer
62
256
370
-1
100
AcDbLine
10
245
20
64
11
258
21
64
0
LINE
5
8B
100
AcDbEntity
8
markings
6
ByLayer
62
256
370
-1
100
AcDbLine
10
245
20
64
11
256.258330249
21
70.5
0
LINE
5
8C
100
AcDbEntity
8
markings
6
ByLayer
62
256
370
-1
100
AcDbLine
10
245
20
64
11
245
21
77
0
LINE
5
8D
100
AcDbEntity
8
markings
6
ByLayer
62
256
370
-1
100
AcDbLine
10
245
20
64
11
238.5
21
75.258330249
0
LINE
5
8E
100
AcDbEntity
8
markings
6
ByLayer
62
256
370
-1
100
AcDbLine
10
245
20
64
11
251.5
21
75.258
0
LINE
5
8F
100
AcDbEntity
8
markings
6
ByLayer
62
256
370
-1
100
AcDbLine
10
245
20
64
11
215
21
81
0
CIRCLE
5
90
100
AcDbEntity
8
0
6
ByLayer
62
256
370
-1
100
AcDbCircle
10
215
20
47
40
3.3
0
LINE
5
91
100
AcDbEntity
8
markings
6
ByLayer
62
256
370
-1
100
AcDbLine
10
215
20
47
11
202
21
47
0
LINE
5
92
100
AcDbEntity
8
markings
6
ByLayer
62
256
370
-1
100
AcDbLine
10
215
20
47
11
203.741669751
21
40.5
0
LINE
5
93
100
AcDbEntity
8
markings
6
ByLayer
62
256
370
-1
100
AcDbLine
10
215
20
47
11
208.5
21
35.741669751
0
LINE
5
94
100
AcDbEntity
8
markings
6
ByLayer
62
256
370
-1
100
AcDbLine
10
215
20
47
11
221.5
21
35.741669751
0
LINE
5
95
100
AcDbEntity
8
markings
6
ByLayer
62
256
370
-1
100
AcDbLine
10
215
20
47
11
228
21
47
0
LINE
5
96
100
AcDbEntity
8
markings
6
ByLayer
62
256
370
-1
100
AcDbLine
10
215
20
47
11
215
21
60
0
LINE
5
97
100
AcDbEntity
8
markings
6
ByLayer
62
256
370
-1
100
AcDbLine
10
215
20
47
11
208.5
21
58.258330249
0
LINE
5
98
100
AcDbEntity
8
markings
6
ByLayer
62
256
370
-1
100
AcDbLine
10
215
20
47
11
203.741669751
21
53.5
0
LINE
5
99
100
AcDbEntity
8
markings
6
ByLayer
62
256
370
-1
100
AcDbLine
10
215
20
47
11
221.5
21
58.258
0
CIRCLE
5
9A
100
AcDbEntity
8
0
6
ByLayer
62
256
370
-1
100
AcDbCircle
10
245
20
30
40
3.3
0
LINE
5
9B
100
AcDbEntity
8
markings
6
ByLayer
62
256
370
-1
100
AcDbLine
10
245
20
30
11
232
21
30
0
LINE
5
9C
100
AcDbEntity
8
markings
6
ByLayer
62
256
370
-1
100
AcDbLine
10
245
20
30
11
233.741669751
21
23.5
0
LINE
5
9D
100
AcDbEntity
8
markings
6
ByLayer
62
256
370
-1
100
AcDbLine
10
245
20
30
11
238.5
21
18.741669751
0
LINE
5
9E
100
AcDbEntity
8
markings
6
ByLayer
62
256
370
-1
100
AcDbLine
10
245
20
30
11
251.5
21
18.741669751
0
LINE
5
9F
100
AcDbEntity
8
markings
6
ByLayer
62
256
370
-1
100
AcDbLine
10
245
20
30
11
256.258330249
21
23.5
0
LINE
5
A0
100
AcDbEntity
8
markings
6
ByLayer
62
256
370
-1
100
AcDbLine
10
245
20
30
11
258
21
30
0
LINE
5
A1
100
AcDbEntity
8
markings
6
ByLayer
62
256
370
-1
100
AcDbLine
10
245
20
30
11
256.258330249
21
36.5
0
LINE
5
A2
100
AcDbEntity
8
markings
6
ByLayer
62
256
370
-1
100
AcDbLine
10
245
20
30
11
245
21
43
0
LINE
5
A3
100
AcDbEntity
8
markings
6
ByLayer
62
256
370
-1
100
AcDbLine
10
245
20
30
11
238.5
21
41.258330249
0
LINE
5
A4
100
AcDbEntity
8
markings
6
ByLayer
62
256
370
-1
100
AcDbLine
10
245
20
30
11
251.5
21
41.258
0
LINE
5
A5
100
AcDbEntity
8
markings
6
ByLayer
62
256
370
-1
100
AcDbLine
10
245
20
30
11
215
21
47
0
LINE
5
A6
100
AcDbEntity
8
markings
6
ByLayer
62
256
370
-1
100
AcDbLine
10
245
20
131
11
215
21
114
0
LINE
5
A7
100
AcDbEntity
8
markings
6
ByLayer
62
256
370
-1
100
AcDbLine
10
245
20
97
11
215
21
81
0
LINE
5
A8
100
AcDbEntity
8
markings
6
ByLayer
62
256
370
-1
100
AcDbLine
10
245
20
64
11
215
21
47
0
CIRCLE
5
A9
100
AcDbEntity
8
0
6
ByLayer
62
256
370
-1
100
AcDbCircle
10
245
20
154
40
3.8
0
CIRCLE
5
AA
100
AcDbEntity
8
0
6
ByLayer
62
256
370
-1
100
AcDbCircle
10
215
20
22
40
3.8
0
LINE
5
AB
100
AcDbEntity
8
0
6
ByLayer
62
256
370
-1
100
AcDbLine
10
100
20
180
11
160
21
180
0
LINE
5
AC
100
AcDbEntity
8
0
6
ByLayer
62
256
370
-1
100
AcDbLine
10
200
20
180
11
260
21
180
0
LINE
5
AD
100
AcDbEntity
8
0
6
ByLayer
62
256
370
-1
100
AcDbLine
10
160
20
0
11
100
21
0
0
LINE
5
AE
100
AcDbEntity
8
0
6
ByLayer
62
256
370
-1
100
AcDbLine
10
260
20
0
11
200
21
0
0
MTEXT
5
AF
100
AcDbEntity
8
markings
6
ByLayer
62
256
370
-1
100
AcDbMText
10
130
20
172
30
0
40
2.5
41
33.4226416667
71
2
72
1
1
4017 sequencer
7
romanc
210
0
220
0
230
1
50
0
73
2
44
1
0
MTEXT
5
B0
100
AcDbEntity
8
markings
6
ByLayer
62
256
370
-1
100
AcDbMText
10
245
20
162
30
0
40
2.5
41
10.9523916667
71
2
72
1
1
clock
7
romanc
210
0
220
0
230
1
50
0
73
2
44
1
0
MTEXT
5
B1
100
AcDbEntity
8
markings
6
ByLayer
62
256
370
-1
100
AcDbMText
10
230
20
172
30
0
40
2.5
41
33.4226416667
71
2
72
1
1
4017 sequencer
7
romanc
210
0
220
0
230
1
50
0
73
2
44
1
0
MTEXT
5
B2
100
AcDbEntity
8
markings
6
ByLayer
62
256
370
-1
100
AcDbMText
10
215
20
29
30
0
40
2
41
5.42857333333
71
2
72
1
1
out
7
romanc
210
0
220
0
230
1
50
0
73
2
44
1
0
CIRCLE
5
B3
100
AcDbEntity
8
0
6
ByLayer
62
256
370
-1
100
AcDbCircle
10
115
20
120
40
3.3
0
LINE
5
B4
100
AcDbEntity
8
markings
6
ByLayer
62
256
370
-1
100
AcDbLine
10
115
20
120
11
102
21
120
0
LINE
5
B5
100
AcDbEntity
8
markings
6
ByLayer
62
256
370
-1
100
AcDbLine
10
115
20
120
11
103.741669751
21
113.5
0
LINE
5
B6
100
AcDbEntity
8
markings
6
ByLayer
62
256
370
-1
100
AcDbLine
10
115
20
120
11
108.5
21
108.741669751
0
LINE
5
B7
100
AcDbEntity
8
markings
6
ByLayer
62
256
370
-1
100
AcDbLine
10
115
20
120
11
121.5
21
108.741669751
0
LINE
5
B8
100
AcDbEntity
8
markings
6
ByLayer
62
256
370
-1
100
AcDbLine
10
115
20
120
11
126.258330249
21
113.5
0
LINE
5
B9
100
AcDbEntity
8
markings
6
ByLayer
62
256
370
-1
100
AcDbLine
10
115
20
120
11
128
21
120
0
LINE
5
BA
100
AcDbEntity
8
markings
6
ByLayer
62
256
370
-1
100
AcDbLine
10
115
20
120
11
126.258330249
21
126.5
0
LINE
5
BB
100
AcDbEntity
8
markings
6
ByLayer
62
256
370
-1
100
AcDbLine
10
115
20
120
11
115
21
133
0
LINE
5
BC
100
AcDbEntity
8
markings
6
ByLayer
62
256
370
-1
100
AcDbLine
10
115
20
120
11
108.5
21
131.258330249
0
LINE
5
BD
100
AcDbEntity
8
markings
6
ByLayer
62
256
370
-1
100
AcDbLine
10
115
20
120
11
103.741669751
21
126.5
0
LINE
5
BE
100
AcDbEntity
8
markings
6
ByLayer
62
256
370
-1
100
AcDbLine
10
115
20
120
11
121.5
21
131.258
0
CIRCLE
5
BF
100
AcDbEntity
8
0
6
ByLayer
62
256
370
-1
100
AcDbCircle
10
115
20
90
40
3.3
0
LINE
5
C0
100
AcDbEntity
8
markings
6
ByLayer
62
256
370
-1
100
AcDbLine
10
115
20
90
11
102
21
90
0
LINE
5
C1
100
AcDbEntity
8
markings
6
ByLayer
62
256
370
-1
100
AcDbLine
10
115
20
90
11
103.741669751
21
83.5
0
LINE
5
C2
100
AcDbEntity
8
markings
6
ByLayer
62
256
370
-1
100
AcDbLine
10
115
20
90
11
108.5
21
78.741669751
0
LINE
5
C3
100
AcDbEntity
8
markings
6
ByLayer
62
256
370
-1
100
AcDbLine
10
115
20
90
11
121.5
21
78.741669751
0
LINE
5
C4
100
AcDbEntity
8
markings
6
ByLayer
62
256
370
-1
100
AcDbLine
10
115
20
90
11
126.258330249
21
83.5
0
LINE
5
C5
100
AcDbEntity
8
markings
6
ByLayer
62
256
370
-1
100
AcDbLine
10
115
20
90
11
128
21
90
0
LINE
5
C6
100
AcDbEntity
8
markings
6
ByLayer
62
256
370
-1
100
AcDbLine
10
115
20
90
11
126.258330249
21
96.5
0
LINE
5
C7
100
AcDbEntity
8
markings
6
ByLayer
62
256
370
-1
100
AcDbLine
10
115
20
90
11
115
21
103
0
LINE
5
C8
100
AcDbEntity
8
markings
6
ByLayer
62
256
370
-1
100
AcDbLine
10
115
20
90
11
108.5
21
101.258330249
0
LINE
5
C9
100
AcDbEntity
8
markings
6
ByLayer
62
256
370
-1
100
AcDbLine
10
115
20
90
11
103.741669751
21
96.5
0
LINE
5
CA
100
AcDbEntity
8
markings
6
ByLayer
62
256
370
-1
100
AcDbLine
10
115
20
90
11
121.5
21
101.258
0
CIRCLE
5
CB
100
AcDbEntity
8
0
6
ByLayer
62
256
370
-1
100
AcDbCircle
10
115
20
60
40
3.3
0
LINE
5
CC
100
AcDbEntity
8
markings
6
ByLayer
62
256
370
-1
100
AcDbLine
10
115
20
60
11
102
21
60
0
LINE
5
CD
100
AcDbEntity
8
markings
6
ByLayer
62
256
370
-1
100
AcDbLine
10
115
20
60
11
103.741669751
21
53.5
0
LINE
5
CE
100
AcDbEntity
8
markings
6
ByLayer
62
256
370
-1
100
AcDbLine
10
115
20
60
11
108.5
21
48.741669751
0
LINE
5
CF
100
AcDbEntity
8
markings
6
ByLayer
62
256
370
-1
100
AcDbLine
10
115
20
60
11
121.5
21
48.741669751
0
LINE
5
D0
100
AcDbEntity
8
markings
6
ByLayer
62
256
370
-1
100
AcDbLine
10
115
20
60
11
126.258330249
21
53.5
0
LINE
5
D1
100
AcDbEntity
8
markings
6
ByLayer
62
256
370
-1
100
AcDbLine
10
115
20
60
11
128
21
60
0
LINE
5
D2
100
AcDbEntity
8
markings
6
ByLayer
62
256
370
-1
100
AcDbLine
10
115
20
60
11
126.258330249
21
66.5
0
LINE
5
D3
100
AcDbEntity
8
markings
6
ByLayer
62
256
370
-1
100
AcDbLine
10
115
20
60
11
115
21
73
0
LINE
5
D4
100
AcDbEntity
8
markings
6
ByLayer
62
256
370
-1
100
AcDbLine
10
115
20
60
11
108.5
21
71.258330249
0
LINE
5
D5
100
AcDbEntity
8
markings
6
ByLayer
62
256
370
-1
100
AcDbLine
10
115
20
60
11
103.741669751
21
66.5
0
LINE
5
D6
100
AcDbEntity
8
markings
6
ByLayer
62
256
370
-1
100
AcDbLine
10
115
20
60
11
121.5
21
71.258
0
CIRCLE
5
D7
100
AcDbEntity
8
0
6
ByLayer
62
256
370
-1
100
AcDbCircle
10
115
20
30
40
3.3
0
LINE
5
D8
100
AcDbEntity
8
markings
6
ByLayer
62
256
370
-1
100
AcDbLine
10
115
20
30
11
102
21
30
0
LINE
5
D9
100
AcDbEntity
8
markings
6
ByLayer
62
256
370
-1
100
AcDbLine
10
115
20
30
11
103.741669751
21
23.5
0
LINE
5
DA
100
AcDbEntity
8
markings
6
ByLayer
62
256
370
-1
100
AcDbLine
10
115
20
30
11
108.5
21
18.741669751
0
LINE
5
DB
100
AcDbEntity
8
markings
6
ByLayer
62
256
370
-1
100
AcDbLine
10
115
20
30
11
121.5
21
18.741669751
0
LINE
5
DC
100
AcDbEntity
8
markings
6
ByLayer
62
256
370
-1
100
AcDbLine
10
115
20
30
11
126.258330249
21
23.5
0
LINE
5
DD
100
AcDbEntity
8
markings
6
ByLayer
62
256
370
-1
100
AcDbLine
10
115
20
30
11
128
21
30
0
LINE
5
DE
100
AcDbEntity
8
markings
6
ByLayer
62
256
370
-1
100
AcDbLine
10
115
20
30
11
126.258330249
21
36.5
0
LINE
5
DF
100
AcDbEntity
8
markings
6
ByLayer
62
256
370
-1
100
AcDbLine
10
115
20
30
11
115
21
43
0
LINE
5
E0
100
AcDbEntity
8
markings
6
ByLayer
62
256
370
-1
100
AcDbLine
10
115
20
30
11
108.5
21
41.258330249
0
LINE
5
E1
100
AcDbEntity
8
markings
6
ByLayer
62
256
370
-1
100
AcDbLine
10
115
20
30
11
103.741669751
21
36.5
0
LINE
5
E2
100
AcDbEntity
8
markings
6
ByLayer
62
256
370
-1
100
AcDbLine
10
115
20
30
11
121.5
21
41.258
0
CIRCLE
5
E3
100
AcDbEntity
8
0
6
ByLayer
62
256
370
-1
100
AcDbCircle
10
115
20
150
40
3.3
0
LINE
5
E4
100
AcDbEntity
8
markings
6
ByLayer
62
256
370
-1
100
AcDbLine
10
115
20
150
11
102
21
150
0
LINE
5
E5
100
AcDbEntity
8
markings
6
ByLayer
62
256
370
-1
100
AcDbLine
10
115
20
150
11
103.741669751
21
143.5
0
LINE
5
E6
100
AcDbEntity
8
markings
6
ByLayer
62
256
370
-1
100
AcDbLine
10
115
20
150
11
108.5
21
138.741669751
0
LINE
5
E7
100
AcDbEntity
8
markings
6
ByLayer
62
256
370
-1
100
AcDbLine
10
115
20
150
11
121.5
21
138.741669751
0
LINE
5
E8
100
AcDbEntity
8
markings
6
ByLayer
62
256
370
-1
100
AcDbLine
10
115
20
150
11
126.258330249
21
143.5
0
LINE
5
E9
100
AcDbEntity
8
markings
6
ByLayer
62
256
370
-1
100
AcDbLine
10
115
20
150
11
128
21
150
0
LINE
5
EA
100
AcDbEntity
8
markings
6
ByLayer
62
256
370
-1
100
AcDbLine
10
115
20
150
11
126.258330249
21
156.5
0
LINE
5
EB
100
AcDbEntity
8
markings
6
ByLayer
62
256
370
-1
100
AcDbLine
10
115
20
150
11
115
21
163
0
LINE
5
EC
100
AcDbEntity
8
markings
6
ByLayer
62
256
370
-1
100
AcDbLine
10
115
20
150
11
108.5
21
161.258330249
0
LINE
5
ED
100
AcDbEntity
8
markings
6
ByLayer
62
256
370
-1
100
AcDbLine
10
115
20
150
11
103.741669751
21
156.5
0
LINE
5
EE
100
AcDbEntity
8
markings
6
ByLayer
62
256
370
-1
100
AcDbLine
10
115
20
150
11
121.5
21
161.258
0
CIRCLE
5
EF
100
AcDbEntity
8
0
6
ByLayer
62
256
370
-1
100
AcDbCircle
10
145
20
120
40
3.3
0
LINE
5
F0
100
AcDbEntity
8
markings
6
ByLayer
62
256
370
-1
100
AcDbLine
10
145
20
120
11
132
21
120
0
LINE
5
F1
100
AcDbEntity
8
markings
6
ByLayer
62
256
370
-1
100
AcDbLine
10
145
20
120
11
133.741669751
21
113.5
0
LINE
5
F2
100
AcDbEntity
8
markings
6
ByLayer
62
256
370
-1
100
AcDbLine
10
145
20
120
11
138.5
21
108.741669751
0
LINE
5
F3
100
AcDbEntity
8
markings
6
ByLayer
62
256
370
-1
100
AcDbLine
10
145
20
120
11
151.5
21
108.741669751
0
LINE
5
F4
100
AcDbEntity
8
markings
6
ByLayer
62
256
370
-1
100
AcDbLine
10
145
20
120
11
156.258330249
21
113.5
0
LINE
5
F5
100
AcDbEntity
8
markings
6
ByLayer
62
256
370
-1
100
AcDbLine
10
145
20
120
11
158
21
120
0
LINE
5
F6
100
AcDbEntity
8
markings
6
ByLayer
62
256
370
-1
100
AcDbLine
10
145
20
120
11
156.258330249
21
126.5
0
LINE
5
F7
100
AcDbEntity
8
markings
6
ByLayer
62
256
370
-1
100
AcDbLine
10
145
20
120
11
145
21
133
0
LINE
5
F8
100
AcDbEntity
8
markings
6
ByLayer
62
256
370
-1
100
AcDbLine
10
145
20
120
11
138.5
21
131.258330249
0
LINE
5
F9
100
AcDbEntity
8
markings
6
ByLayer
62
256
370
-1
100
AcDbLine
10
145
20
120
11
133.741669751
21
126.5
0
LINE
5
FA
100
AcDbEntity
8
markings
6
ByLayer
62
256
370
-1
100
AcDbLine
10
145
20
120
11
151.5
21
131.258
0
CIRCLE
5
FB
100
AcDbEntity
8
0
6
ByLayer
62
256
370
-1
100
AcDbCircle
10
145
20
90
40
3.3
0
LINE
5
FC
100
AcDbEntity
8
markings
6
ByLayer
62
256
370
-1
100
AcDbLine
10
145
20
90
11
132
21
90
0
LINE
5
FD
100
AcDbEntity
8
markings
6
ByLayer
62
256
370
-1
100
AcDbLine
10
145
20
90
11
133.741669751
21
83.5
0
LINE
5
FE
100
AcDbEntity
8
markings
6
ByLayer
62
256
370
-1
100
AcDbLine
10
145
20
90
11
138.5
21
78.741669751
0
LINE
5
FF
100
AcDbEntity
8
markings
6
ByLayer
62
256
370
-1
100
AcDbLine
10
145
20
90
11
151.5
21
78.741669751
0
LINE
5
100
100
AcDbEntity
8
markings
6
ByLayer
62
256
370
-1
100
AcDbLine
10
145
20
90
11
156.258330249
21
83.5
0
LINE
5
101
100
AcDbEntity
8
markings
6
ByLayer
62
256
370
-1
100
AcDbLine
10
145
20
90
11
158
21
90
0
LINE
5
102
100
AcDbEntity
8
markings
6
ByLayer
62
256
370
-1
100
AcDbLine
10
145
20
90
11
156.258330249
21
96.5
0
LINE
5
103
100
AcDbEntity
8
markings
6
ByLayer
62
256
370
-1
100
AcDbLine
10
145
20
90
11
145
21
103
0
LINE
5
104
100
AcDbEntity
8
markings
6
ByLayer
62
256
370
-1
100
AcDbLine
10
145
20
90
11
138.5
21
101.258330249
0
LINE
5
105
100
AcDbEntity
8
markings
6
ByLayer
62
256
370
-1
100
AcDbLine
10
145
20
90
11
133.741669751
21
96.5
0
LINE
5
106
100
AcDbEntity
8
markings
6
ByLayer
62
256
370
-1
100
AcDbLine
10
145
20
90
11
151.5
21
101.258
0
CIRCLE
5
107
100
AcDbEntity
8
0
6
ByLayer
62
256
370
-1
100
AcDbCircle
10
145
20
60
40
3.3
0
LINE
5
108
100
AcDbEntity
8
markings
6
ByLayer
62
256
370
-1
100
AcDbLine
10
145
20
60
11
132
21
60
0
LINE
5
109
100
AcDbEntity
8
markings
6
ByLayer
62
256
370
-1
100
AcDbLine
10
145
20
60
11
133.741669751
21
53.5
0
LINE
5
10A
100
AcDbEntity
8
markings
6
ByLayer
62
256
370
-1
100
AcDbLine
10
145
20
60
11
138.5
21
48.741669751
0
LINE
5
10B
100
AcDbEntity
8
markings
6
ByLayer
62
256
370
-1
100
AcDbLine
10
145
20
60
11
151.5
21
48.741669751
0
LINE
5
10C
100
AcDbEntity
8
markings
6
ByLayer
62
256
370
-1
100
AcDbLine
10
145
20
60
11
156.258330249
21
53.5
0
LINE
5
10D
100
AcDbEntity
8
markings
6
ByLayer
62
256
370
-1
100
AcDbLine
10
145
20
60
11
158
21
60
0
LINE
5
10E
100
AcDbEntity
8
markings
6
ByLayer
62
256
370
-1
100
AcDbLine
10
145
20
60
11
156.258330249
21
66.5
0
LINE
5
10F
100
AcDbEntity
8
markings
6
ByLayer
62
256
370
-1
100
AcDbLine
10
145
20
60
11
145
21
73
0
LINE
5
110
100
AcDbEntity
8
markings
6
ByLayer
62
256
370
-1
100
AcDbLine
10
145
20
60
11
138.5
21
71.258330249
0
LINE
5
111
100
AcDbEntity
8
markings
6
ByLayer
62
256
370
-1
100
AcDbLine
10
145
20
60
11
133.741669751
21
66.5
0
LINE
5
112
100
AcDbEntity
8
markings
6
ByLayer
62
256
370
-1
100
AcDbLine
10
145
20
60
11
151.5
21
71.258
0
CIRCLE
5
113
100
AcDbEntity
8
0
6
ByLayer
62
256
370
-1
100
AcDbCircle
10
145
20
30
40
3.3
0
LINE
5
114
100
AcDbEntity
8
markings
6
ByLayer
62
256
370
-1
100
AcDbLine
10
145
20
30
11
132
21
30
0
LINE
5
115
100
AcDbEntity
8
markings
6
ByLayer
62
256
370
-1
100
AcDbLine
10
145
20
30
11
133.741669751
21
23.5
0
LINE
5
116
100
AcDbEntity
8
markings
6
ByLayer
62
256
370
-1
100
AcDbLine
10
145
20
30
11
138.5
21
18.741669751
0
LINE
5
117
100
AcDbEntity
8
markings
6
ByLayer
62
256
370
-1
100
AcDbLine
10
145
20
30
11
151.5
21
18.741669751
0
LINE
5
118
100
AcDbEntity
8
markings
6
ByLayer
62
256
370
-1
100
AcDbLine
10
145
20
30
11
156.258330249
21
23.5
0
LINE
5
119
100
AcDbEntity
8
markings
6
ByLayer
62
256
370
-1
100
AcDbLine
10
145
20
30
11
158
21
30
0
LINE
5
11A
100
AcDbEntity
8
markings
6
ByLayer
62
256
370
-1
100
AcDbLine
10
145
20
30
11
156.258330249
21
36.5
0
LINE
5
11B
100
AcDbEntity
8
markings
6
ByLayer
62
256
370
-1
100
AcDbLine
10
145
20
30
11
145
21
43
0
LINE
5
11C
100
AcDbEntity
8
markings
6
ByLayer
62
256
370
-1
100
AcDbLine
10
145
20
30
11
138.5
21
41.258330249
0
LINE
5
11D
100
AcDbEntity
8
markings
6
ByLayer
62
256
370
-1
100
AcDbLine
10
145
20
30
11
133.741669751
21
36.5
0
LINE
5
11E
100
AcDbEntity
8
markings
6
ByLayer
62
256
370
-1
100
AcDbLine
10
145
20
30
11
151.5
21
41.258
0
CIRCLE
5
11F
100
AcDbEntity
8
0
6
ByLayer
62
256
370
-1
100
AcDbCircle
10
145
20
150
40
3.3
0
LINE
5
120
100
AcDbEntity
8
markings
6
ByLayer
62
256
370
-1
100
AcDbLine
10
145
20
150
11
132
21
150
0
LINE
5
121
100
AcDbEntity
8
markings
6
ByLayer
62
256
370
-1
100
AcDbLine
10
145
20
150
11
133.741669751
21
143.5
0
LINE
5
122
100
AcDbEntity
8
markings
6
ByLayer
62
256
370
-1
100
AcDbLine
10
145
20
150
11
138.5
21
138.741669751
0
LINE
5
123
100
AcDbEntity
8
markings
6
ByLayer
62
256
370
-1
100
AcDbLine
10
145
20
150
11
151.5
21
138.741669751
0
LINE
5
124
100
AcDbEntity
8
markings
6
ByLayer
62
256
370
-1
100
AcDbLine
10
145
20
150
11
156.258330249
21
143.5
0
LINE
5
125
100
AcDbEntity
8
markings
6
ByLayer
62
256
370
-1
100
AcDbLine
10
145
20
150
11
158
21
150
0
LINE
5
126
100
AcDbEntity
8
markings
6
ByLayer
62
256
370
-1
100
AcDbLine
10
145
20
150
11
156.258330249
21
156.5
0
LINE
5
127
100
AcDbEntity
8
markings
6
ByLayer
62
256
370
-1
100
AcDbLine
10
145
20
150
11
145
21
163
0
LINE
5
128
100
AcDbEntity
8
markings
6
ByLayer
62
256
370
-1
100
AcDbLine
10
145
20
150
11
138.5
21
161.258330249
0
LINE
5
129
100
AcDbEntity
8
markings
6
ByLayer
62
256
370
-1
100
AcDbLine
10
145
20
150
11
133.741669751
21
156.5
0
LINE
5
12A
100
AcDbEntity
8
markings
6
ByLayer
62
256
370
-1
100
AcDbLine
10
145
20
150
11
151.5
21
161.258
0
CIRCLE
5
12B
100
AcDbEntity
8
0
6
ByLayer
62
256
370
-1
100
AcDbCircle
10
130
20
162
40
3.8
0
CIRCLE
5
12C
100
AcDbEntity
8
0
6
ByLayer
62
256
370
-1
100
AcDbCircle
10
130
20
18
40
3.8
0
CIRCLE
5
12D
100
AcDbEntity
8
0
6
ByLayer
62
256
370
-1
100
AcDbCircle
10
605
20
5
40
1.5
0
CIRCLE
5
12E
100
AcDbEntity
8
0
6
ByLayer
62
256
370
-1
100
AcDbCircle
10
675
20
25
40
3.3
0
LINE
5
12F
100
AcDbEntity
8
markings
6
ByLayer
62
256
370
-1
100
AcDbLine
10
675
20
25
11
662
21
25
0
LINE
5
130
100
AcDbEntity
8
markings
6
ByLayer
62
256
370
-1
100
AcDbLine
10
675
20
25
11
663.741669751
21
18.5
0
LINE
5
131
100
AcDbEntity
8
markings
6
ByLayer
62
256
370
-1
100
AcDbLine
10
675
20
25
11
668.5
21
13.741669751
0
LINE
5
132
100
AcDbEntity
8
markings
6
ByLayer
62
256
370
-1
100
AcDbLine
10
675
20
25
11
681.5
21
13.741669751
0
LINE
5
133
100
AcDbEntity
8
markings
6
ByLayer
62
256
370
-1
100
AcDbLine
10
675
20
25
11
686.258330249
21
18.5
0
LINE
5
134
100
AcDbEntity
8
markings
6
ByLayer
62
256
370
-1
100
AcDbLine
10
675
20
25
11
688
21
25
0
LINE
5
135
100
AcDbEntity
8
markings
6
ByLayer
62
256
370
-1
100
AcDbLine
10
675
20
25
11
686.258330249
21
31.5
0
LINE
5
136
100
AcDbEntity
8
markings
6
ByLayer
62
256
370
-1
100
AcDbLine
10
675
20
25
11
675
21
38
0
LINE
5
137
100
AcDbEntity
8
markings
6
ByLayer
62
256
370
-1
100
AcDbLine
10
675
20
25
11
668.5
21
36.258330249
0
LINE
5
138
100
AcDbEntity
8
markings
6
ByLayer
62
256
370
-1
100
AcDbLine
10
675
20
25
11
663.741669751
21
31.5
0
LINE
5
139
100
AcDbEntity
8
markings
6
ByLayer
62
256
370
-1
100
AcDbLine
10
675
20
25
11
681.5
21
36.258
0
CIRCLE
5
13A
100
AcDbEntity
8
0
6
ByLayer
62
256
370
-1
100
AcDbCircle
10
675
20
145
40
3.3
0
LINE
5
13B
100
AcDbEntity
8
markings
6
ByLayer
62
256
370
-1
100
AcDbLine
10
675
20
145
11
662
21
145
0
LINE
5
13C
100
AcDbEntity
8
markings
6
ByLayer
62
256
370
-1
100
AcDbLine
10
675
20
145
11
663.741669751
21
138.5
0
LINE
5
13D
100
AcDbEntity
8
markings
6
ByLayer
62
256
370
-1
100
AcDbLine
10
675
20
145
11
668.5
21
133.741669751
0
LINE
5
13E
100
AcDbEntity
8
markings
6
ByLayer
62
256
370
-1
100
AcDbLine
10
675
20
145
11
681.5
21
133.741669751
0
LINE
5
13F
100
AcDbEntity
8
markings
6
ByLayer
62
256
370
-1
100
AcDbLine
10
675
20
145
11
686.258330249
21
138.5
0
LINE
5
140
100
AcDbEntity
8
markings
6
ByLayer
62
256
370
-1
100
AcDbLine
10
675
20
145
11
688
21
145
0
LINE
5
141
100
AcDbEntity
8
markings
6
ByLayer
62
256
370
-1
100
AcDbLine
10
675
20
145
11
686.258330249
21
151.5
0
LINE
5
142
100
AcDbEntity
8
markings
6
ByLayer
62
256
370
-1
100
AcDbLine
10
675
20
145
11
675
21
158
0
LINE
5
143
100
AcDbEntity
8
markings
6
ByLayer
62
256
370
-1
100
AcDbLine
10
675
20
145
11
668.5
21
156.258330249
0
LINE
5
144
100
AcDbEntity
8
markings
6
ByLayer
62
256
370
-1
100
AcDbLine
10
675
20
145
11
663.741669751
21
151.5
0
LINE
5
145
100
AcDbEntity
8
markings
6
ByLayer
62
256
370
-1
100
AcDbLine
10
675
20
145
11
681.5
21
156.258
0
CIRCLE
5
146
100
AcDbEntity
8
0
6
ByLayer
62
256
370
-1
100
AcDbCircle
10
615
20
85
40
3.3
0
LINE
5
147
100
AcDbEntity
8
markings
6
ByLayer
62
256
370
-1
100
AcDbLine
10
615
20
85
11
602
21
85
0
LINE
5
148
100
AcDbEntity
8
markings
6
ByLayer
62
256
370
-1
100
AcDbLine
10
615
20
85
11
603.741669751
21
78.5
0
LINE
5
149
100
AcDbEntity
8
markings
6
ByLayer
62
256
370
-1
100
AcDbLine
10
615
20
85
11
608.5
21
73.741669751
0
LINE
5
14A
100
AcDbEntity
8
markings
6
ByLayer
62
256
370
-1
100
AcDbLine
10
615
20
85
11
621.5
21
73.741669751
0
LINE
5
14B
100
AcDbEntity
8
markings
6
ByLayer
62
256
370
-1
100
AcDbLine
10
615
20
85
11
626.258330249
21
78.5
0
LINE
5
14C
100
AcDbEntity
8
markings
6
ByLayer
62
256
370
-1
100
AcDbLine
10
615
20
85
11
628
21
85
0
LINE
5
14D
100
AcDbEntity
8
markings
6
ByLayer
62
256
370
-1
100
AcDbLine
10
615
20
85
11
626.258330249
21
91.5
0
LINE
5
14E
100
AcDbEntity
8
markings
6
ByLayer
62
256
370
-1
100
AcDbLine
10
615
20
85
11
615
21
98
0
LINE
5
14F
100
AcDbEntity
8
markings
6
ByLayer
62
256
370
-1
100
AcDbLine
10
615
20
85
11
608.5
21
96.258330249
0
LINE
5
150
100
AcDbEntity
8
markings
6
ByLayer
62
256
370
-1
100
AcDbLine
10
615
20
85
11
603.741669751
21
91.5
0
LINE
5
151
100
AcDbEntity
8
markings
6
ByLayer
62
256
370
-1
100
AcDbLine
10
615
20
85
11
621.5
21
96.258
0
CIRCLE
5
152
100
AcDbEntity
8
0
6
ByLayer
62
256
370
-1
100
AcDbCircle
10
735
20
85
40
3.3
0
LINE
5
153
100
AcDbEntity
8
markings
6
ByLayer
62
256
370
-1
100
AcDbLine
10
735
20
85
11
722
21
85
0
LINE
5
154
100
AcDbEntity
8
markings
6
ByLayer
62
256
370
-1
100
AcDbLine
10
735
20
85
11
723.741669751
21
78.5
0
LINE
5
155
100
AcDbEntity
8
markings
6
ByLayer
62
256
370
-1
100
AcDbLine
10
735
20
85
11
728.5
21
73.741669751
0
LINE
5
156
100
AcDbEntity
8
markings
6
ByLayer
62
256
370
-1
100
AcDbLine
10
735
20
85
11
741.5
21
73.741669751
0
LINE
5
157
100
AcDbEntity
8
markings
6
ByLayer
62
256
370
-1
100
AcDbLine
10
735
20
85
11
746.258330249
21
78.5
0
LINE
5
158
100
AcDbEntity
8
markings
6
ByLayer
62
256
370
-1
100
AcDbLine
10
735
20
85
11
748
21
85
0
LINE
5
159
100
AcDbEntity
8
markings
6
ByLayer
62
256
370
-1
100
AcDbLine
10
735
20
85
11
746.258330249
21
91.5
0
LINE
5
15A
100
AcDbEntity
8
markings
6
ByLayer
62
256
370
-1
100
AcDbLine
10
735
20
85
11
735
21
98
0
LINE
5
15B
100
AcDbEntity
8
markings
6
ByLayer
62
256
370
-1
100
AcDbLine
10
735
20
85
11
728.5
21
96.258330249
0
LINE
5
15C
100
AcDbEntity
8
markings
6
ByLayer
62
256
370
-1
100
AcDbLine
10
735
20
85
11
723.741669751
21
91.5
0
LINE
5
15D
100
AcDbEntity
8
markings
6
ByLayer
62
256
370
-1
100
AcDbLine
10
735
20
85
11
741.5
21
96.258
0
CIRCLE
5
15E
100
AcDbEntity
8
0
6
ByLayer
62
256
370
-1
100
AcDbCircle
10
745
20
175
40
1.5
0
CIRCLE
5
15F
100
AcDbEntity
8
0
6
ByLayer
62
256
370
-1
100
AcDbCircle
10
745
20
5
40
1.5
0
CIRCLE
5
160
100
AcDbEntity
8
0
6
ByLayer
62
256
370
-1
100
AcDbCircle
10
605
20
175
40
1.5
0
LINE
5
161
100
AcDbEntity
8
0
6
ByLayer
62
256
370
-1
100
AcDbLine
10
600
20
0
11
750
21
0
0
LINE
5
162
100
AcDbEntity
8
0
6
ByLayer
62
256
370
-1
100
AcDbLine
10
750
20
0
11
750
21
180
0
LINE
5
163
100
AcDbEntity
8
0
6
ByLayer
62
256
370
-1
100
AcDbLine
10
750
20
180
11
600
21
180
0
LINE
5
164
100
AcDbEntity
8
0
6
ByLayer
62
256
370
-1
100
AcDbLine
10
600
20
180
11
600
21
0
0
CIRCLE
5
165
100
AcDbEntity
8
0
6
ByLayer
62
256
370
-1
100
AcDbCircle
10
675
20
95
40
3.8
0
CIRCLE
5
166
100
AcDbEntity
8
0
6
ByLayer
62
256
370
-1
100
AcDbCircle
10
675
20
75
40
3.8
0
MTEXT
5
167
100
AcDbEntity
8
markings
6
ByLayer
62
256
370
-1
100
AcDbMText
10
675
20
172
30
0
40
2.5
41
33.4226416667
71
2
72
1
1
4017 sequencer
7
romanc
210
0
220
0
230
1
50
0
73
2
44
1
0
MTEXT
5
168
100
AcDbEntity
8
markings
6
ByLayer
62
256
370
-1
100
AcDbMText
10
675
20
105
30
0
40
2.5
41
10.9523916667
71
2
72
1
1
clock
7
romanc
210
0
220
0
230
1
50
0
73
2
44
1
0
MTEXT
5
169
100
AcDbEntity
8
markings
6
ByLayer
62
256
370
-1
100
AcDbMText
10
675
20
67
30
0
40
2
41
5.42857333333
71
5
72
1
1
out
7
romanc
210
0
220
0
230
1
50
0
73
2
44
1
0
CIRCLE
5
16A
100
AcDbEntity
8
0
6
ByLayer
62
256
370
-1
100
AcDbCircle
10
717.426406871
20
127.426406871
40
3.3
0
LINE
5
16B
100
AcDbEntity
8
markings
6
ByLayer
62
256
370
-1
100
AcDbLine
10
717.426406871
20
127.426406871
11
704.426406871
21
127.426406871
0
LINE
5
16C
100
AcDbEntity
8
markings
6
ByLayer
62
256
370
-1
100
AcDbLine
10
717.426406871
20
127.426406871
11
706.168076622
21
120.926406871
0
LINE
5
16D
100
AcDbEntity
8
markings
6
ByLayer
62
256
370
-1
100
AcDbLine
10
717.426406871
20
127.426406871
11
710.926406871
21
116.168076622
0
LINE
5
16E
100
AcDbEntity
8
markings
6
ByLayer
62
256
370
-1
100
AcDbLine
10
717.426406871
20
127.426406871
11
723.926406871
21
116.168076622
0
LINE
5
16F
100
AcDbEntity
8
markings
6
ByLayer
62
256
370
-1
100
AcDbLine
10
717.426406871
20
127.426406871
11
728.68473712
21
120.926406871
0
LINE
5
170
100
AcDbEntity
8
markings
6
ByLayer
62
256
370
-1
100
AcDbLine
10
717.426406871
20
127.426406871
11
730.426406871
21
127.426406871
0
LINE
5
171
100
AcDbEntity
8
markings
6
ByLayer
62
256
370
-1
100
AcDbLine
10
717.426406871
20
127.426406871
11
728.68473712
21
133.926406871
0
LINE
5
172
100
AcDbEntity
8
markings
6
ByLayer
62
256
370
-1
100
AcDbLine
10
717.426406871
20
127.426406871
11
717.426406871
21
140.426406871
0
LINE
5
173
100
AcDbEntity
8
markings
6
ByLayer
62
256
370
-1
100
AcDbLine
10
717.426406871
20
127.426406871
11
710.926406871
21
138.68473712
0
LINE
5
174
100
AcDbEntity
8
markings
6
ByLayer
62
256
370
-1
100
AcDbLine
10
717.426406871
20
127.426406871
11
706.168076622
21
133.926406871
0
LINE
5
175
100
AcDbEntity
8
markings
6
ByLayer
62
256
370
-1
100
AcDbLine
10
717.426406871
20
127.426406871
11
723.926406871
21
138.684406871
0
CIRCLE
5
176
100
AcDbEntity
8
0
6
ByLayer
62
256
370
-1
100
AcDbCircle
10
717.426406871
20
42.5735931288
40
3.3
0
LINE
5
177
100
AcDbEntity
8
markings
6
ByLayer
62
256
370
-1
100
AcDbLine
10
717.426406871
20
42.5735931288
11
704.426406871
21
42.5735931288
0
LINE
5
178
100
AcDbEntity
8
markings
6
ByLayer
62
256
370
-1
100
AcDbLine
10
717.426406871
20
42.5735931288
11
706.168076622
21
36.0735931288
0
LINE
5
179
100
AcDbEntity
8
markings
6
ByLayer
62
256
370
-1
100
AcDbLine
10
717.426406871
20
42.5735931288
11
710.926406871
21
31.3152628798
0
LINE
5
17A
100
AcDbEntity
8
markings
6
ByLayer
62
256
370
-1
100
AcDbLine
10
717.426406871
20
42.5735931288
11
723.926406871
21
31.3152628798
0
LINE
5
17B
100
AcDbEntity
8
markings
6
ByLayer
62
256
370
-1
100
AcDbLine
10
717.426406871
20
42.5735931288
11
728.68473712
21
36.0735931288
0
LINE
5
17C
100
AcDbEntity
8
markings
6
ByLayer
62
256
370
-1
100
AcDbLine
10
717.426406871
20
42.5735931288
11
730.426406871
21
42.5735931288
0
LINE
5
17D
100
AcDbEntity
8
markings
6
ByLayer
62
256
370
-1
100
AcDbLine
10
717.426406871
20
42.5735931288
11
728.68473712
21
49.0735931288
0
LINE
5
17E
100
AcDbEntity
8
markings
6
ByLayer
62
256
370
-1
100
AcDbLine
10
717.426406871
20
42.5735931288
11
717.426406871
21
55.5735931288
0
LINE
5
17F
100
AcDbEntity
8
markings
6
ByLayer
62
256
370
-1
100
AcDbLine
10
717.426406871
20
42.5735931288
11
710.926406871
21
53.8319233778
0
LINE
5
180
100
AcDbEntity
8
markings
6
ByLayer
62
256
370
-1
100
AcDbLine
10
717.426406871
20
42.5735931288
11
706.168076622
21
49.0735931288
0
LINE
5
181
100
AcDbEntity
8
markings
6
ByLayer
62
256
370
-1
100
AcDbLine
10
717.426406871
20
42.5735931288
11
723.926406871
21
53.8315931288
0
CIRCLE
5
182
100
AcDbEntity
8
0
6
ByLayer
62
256
370
-1
100
AcDbCircle
10
632.573593129
20
42.5735931288
40
3.3
0
LINE
5
183
100
AcDbEntity
8
markings
6
ByLayer
62
256
370
-1
100
AcDbLine
10
632.573593129
20
42.5735931288
11
619.573593129
21
42.5735931288
0
LINE
5
184
100
AcDbEntity
8
markings
6
ByLayer
62
256
370
-1
100
AcDbLine
10
632.573593129
20
42.5735931288
11
621.31526288
21
36.0735931288
0
LINE
5
185
100
AcDbEntity
8
markings
6
ByLayer
62
256
370
-1
100
AcDbLine
10
632.573593129
20
42.5735931288
11
626.073593129
21
31.3152628798
0
LINE
5
186
100
AcDbEntity
8
markings
6
ByLayer
62
256
370
-1
100
AcDbLine
10
632.573593129
20
42.5735931288
11
639.073593129
21
31.3152628798
0
LINE
5
187
100
AcDbEntity
8
markings
6
ByLayer
62
256
370
-1
100
AcDbLine
10
632.573593129
20
42.5735931288
11
643.831923378
21
36.0735931288
0
LINE
5
188
100
AcDbEntity
8
markings
6
ByLayer
62
256
370
-1
100
AcDbLine
10
632.573593129
20
42.5735931288
11
645.573593129
21
42.5735931288
0
LINE
5
189
100
AcDbEntity
8
markings
6
ByLayer
62
256
370
-1
100
AcDbLine
10
632.573593129
20
42.5735931288
11
643.831923378
21
49.0735931288
0
LINE
5
18A
100
AcDbEntity
8
markings
6
ByLayer
62
256
370
-1
100
AcDbLine
10
632.573593129
20
42.5735931288
11
632.573593129
21
55.5735931288
0
LINE
5
18B
100
AcDbEntity
8
markings
6
ByLayer
62
256
370
-1
100
AcDbLine
10
632.573593129
20
42.5735931288
11
626.073593129
21
53.8319233778
0
LINE
5
18C
100
AcDbEntity
8
markings
6
ByLayer
62
256
370
-1
100
AcDbLine
10
632.573593129
20
42.5735931288
11
621.31526288
21
49.0735931288
0
LINE
5
18D
100
AcDbEntity
8
markings
6
ByLayer
62
256
370
-1
100
AcDbLine
10
632.573593129
20
42.5735931288
11
639.073593129
21
53.8315931288
0
CIRCLE
5
18E
100
AcDbEntity
8
0
6
ByLayer
62
256
370
-1
100
AcDbCircle
10
632.573593129
20
127.426406871
40
3.3
0
LINE
5
18F
100
AcDbEntity
8
markings
6
ByLayer
62
256
370
-1
100
AcDbLine
10
632.573593129
20
127.426406871
11
619.573593129
21
127.426406871
0
LINE
5
190
100
AcDbEntity
8
markings
6
ByLayer
62
256
370
-1
100
AcDbLine
10
632.573593129
20
127.426406871
11
621.31526288
21
120.926406871
0
LINE
5
191
100
AcDbEntity
8
markings
6
ByLayer
62
256
370
-1
100
AcDbLine
10
632.573593129
20
127.426406871
11
626.073593129
21
116.168076622
0
LINE
5
192
100
AcDbEntity
8
markings
6
ByLayer
62
256
370
-1
100
AcDbLine
10
632.573593129
20
127.426406871
11
639.073593129
21
116.168076622
0
LINE
5
193
100
AcDbEntity
8
markings
6
ByLayer
62
256
370
-1
100
AcDbLine
10
632.573593129
20
127.426406871
11
643.831923378
21
120.926406871
0
LINE
5
194
100
AcDbEntity
8
markings
6
ByLayer
62
256
370
-1
100
AcDbLine
10
632.573593129
20
127.426406871
11
645.573593129
21
127.426406871
0
LINE
5
195
100
AcDbEntity
8
markings
6
ByLayer
62
256
370
-1
100
AcDbLine
10
632.573593129
20
127.426406871
11
643.831923378
21
133.926406871
0
LINE
5
196
100
AcDbEntity
8
markings
6
ByLayer
62
256
370
-1
100
AcDbLine
10
632.573593129
20
127.426406871
11
632.573593129
21
140.426406871
0
LINE
5
197
100
AcDbEntity
8
markings
6
ByLayer
62
256
370
-1
100
AcDbLine
10
632.573593129
20
127.426406871
11
626.073593129
21
138.68473712
0
LINE
5
198
100
AcDbEntity
8
markings
6
ByLayer
62
256
370
-1
100
AcDbLine
10
632.573593129
20
127.426406871
11
621.31526288
21
133.926406871
0
LINE
5
199
100
AcDbEntity
8
markings
6
ByLayer
62
256
370
-1
100
AcDbLine
10
632.573593129
20
127.426406871
11
639.073593129
21
138.684406871
0
CIRCLE
5
19A
100
AcDbEntity
8
0
6
ByLayer
62
256
370
-1
100
AcDbCircle
10
805
20
5
40
1.5
0
CIRCLE
5
19B
100
AcDbEntity
8
0
6
ByLayer
62
256
370
-1
100
AcDbCircle
10
875
20
25
40
3.3
0
LINE
5
19C
100
AcDbEntity
8
markings
6
ByLayer
62
256
370
-1
100
AcDbLine
10
875
20
25
11
862
21
25
0
LINE
5
19D
100
AcDbEntity
8
markings
6
ByLayer
62
256
370
-1
100
AcDbLine
10
875
20
25
11
863.741669751
21
18.5
0
LINE
5
19E
100
AcDbEntity
8
markings
6
ByLayer
62
256
370
-1
100
AcDbLine
10
875
20
25
11
868.5
21
13.741669751
0
LINE
5
19F
100
AcDbEntity
8
markings
6
ByLayer
62
256
370
-1
100
AcDbLine
10
875
20
25
11
881.5
21
13.741669751
0
LINE
5
1A0
100
AcDbEntity
8
markings
6
ByLayer
62
256
370
-1
100
AcDbLine
10
875
20
25
11
886.258330249
21
18.5
0
LINE
5
1A1
100
AcDbEntity
8
markings
6
ByLayer
62
256
370
-1
100
AcDbLine
10
875
20
25
11
888
21
25
0
LINE
5
1A2
100
AcDbEntity
8
markings
6
ByLayer
62
256
370
-1
100
AcDbLine
10
875
20
25
11
886.258330249
21
31.5
0
LINE
5
1A3
100
AcDbEntity
8
markings
6
ByLayer
62
256
370
-1
100
AcDbLine
10
875
20
25
11
875
21
38
0
LINE
5
1A4
100
AcDbEntity
8
markings
6
ByLayer
62
256
370
-1
100
AcDbLine
10
875
20
25
11
868.5
21
36.258330249
0
LINE
5
1A5
100
AcDbEntity
8
markings
6
ByLayer
62
256
370
-1
100
AcDbLine
10
875
20
25
11
863.741669751
21
31.5
0
LINE
5
1A6
100
AcDbEntity
8
markings
6
ByLayer
62
256
370
-1
100
AcDbLine
10
875
20
25
11
881.5
21
36.258
0
CIRCLE
5
1A7
100
AcDbEntity
8
0
6
ByLayer
62
256
370
-1
100
AcDbCircle
10
875
20
145
40
3.3
0
LINE
5
1A8
100
AcDbEntity
8
markings
6
ByLayer
62
256
370
-1
100
AcDbLine
10
875
20
145
11
862
21
145
0
LINE
5
1A9
100
AcDbEntity
8
markings
6
ByLayer
62
256
370
-1
100
AcDbLine
10
875
20
145
11
863.741669751
21
138.5
0
LINE
5
1AA
100
AcDbEntity
8
markings
6
ByLayer
62
256
370
-1
100
AcDbLine
10
875
20
145
11
868.5
21
133.741669751
0
LINE
5
1AB
100
AcDbEntity
8
markings
6
ByLayer
62
256
370
-1
100
AcDbLine
10
875
20
145
11
881.5
21
133.741669751
0
LINE
5
1AC
100
AcDbEntity
8
markings
6
ByLayer
62
256
370
-1
100
AcDbLine
10
875
20
145
11
886.258330249
21
138.5
0
LINE
5
1AD
100
AcDbEntity
8
markings
6
ByLayer
62
256
370
-1
100
AcDbLine
10
875
20
145
11
888
21
145
0
LINE
5
1AE
100
AcDbEntity
8
markings
6
ByLayer
62
256
370
-1
100
AcDbLine
10
875
20
145
11
886.258330249
21
151.5
0
LINE
5
1AF
100
AcDbEntity
8
markings
6
ByLayer
62
256
370
-1
100
AcDbLine
10
875
20
145
11
875
21
158
0
LINE
5
1B0
100
AcDbEntity
8
markings
6
ByLayer
62
256
370
-1
100
AcDbLine
10
875
20
145
11
868.5
21
156.258330249
0
LINE
5
1B1
100
AcDbEntity
8
markings
6
ByLayer
62
256
370
-1
100
AcDbLine
10
875
20
145
11
863.741669751
21
151.5
0
LINE
5
1B2
100
AcDbEntity
8
markings
6
ByLayer
62
256
370
-1
100
AcDbLine
10
875
20
145
11
881.5
21
156.258
0
CIRCLE
5
1B3
100
AcDbEntity
8
0
6
ByLayer
62
256
370
-1
100
AcDbCircle
10
815
20
85
40
3.3
0
LINE
5
1B4
100
AcDbEntity
8
markings
6
ByLayer
62
256
370
-1
100
AcDbLine
10
815
20
85
11
802
21
85
0
LINE
5
1B5
100
AcDbEntity
8
markings
6
ByLayer
62
256
370
-1
100
AcDbLine
10
815
20
85
11
803.741669751
21
78.5
0
LINE
5
1B6
100
AcDbEntity
8
markings
6
ByLayer
62
256
370
-1
100
AcDbLine
10
815
20
85
11
808.5
21
73.741669751
0
LINE
5
1B7
100
AcDbEntity
8
markings
6
ByLayer
62
256
370
-1
100
AcDbLine
10
815
20
85
11
821.5
21
73.741669751
0
LINE
5
1B8
100
AcDbEntity
8
markings
6
ByLayer
62
256
370
-1
100
AcDbLine
10
815
20
85
11
826.258330249
21
78.5
0
LINE
5
1B9
100
AcDbEntity
8
markings
6
ByLayer
62
256
370
-1
100
AcDbLine
10
815
20
85
11
828
21
85
0
LINE
5
1BA
100
AcDbEntity
8
markings
6
ByLayer
62
256
370
-1
100
AcDbLine
10
815
20
85
11
826.258330249
21
91.5
0
LINE
5
1BB
100
AcDbEntity
8
markings
6
ByLayer
62
256
370
-1
100
AcDbLine
10
815
20
85
11
815
21
98
0
LINE
5
1BC
100
AcDbEntity
8
markings
6
ByLayer
62
256
370
-1
100
AcDbLine
10
815
20
85
11
808.5
21
96.258330249
0
LINE
5
1BD
100
AcDbEntity
8
markings
6
ByLayer
62
256
370
-1
100
AcDbLine
10
815
20
85
11
803.741669751
21
91.5
0
LINE
5
1BE
100
AcDbEntity
8
markings
6
ByLayer
62
256
370
-1
100
AcDbLine
10
815
20
85
11
821.5
21
96.258
0
CIRCLE
5
1BF
100
AcDbEntity
8
0
6
ByLayer
62
256
370
-1
100
AcDbCircle
10
935
20
85
40
3.3
0
LINE
5
1C0
100
AcDbEntity
8
markings
6
ByLayer
62
256
370
-1
100
AcDbLine
10
935
20
85
11
922
21
85
0
LINE
5
1C1
100
AcDbEntity
8
markings
6
ByLayer
62
256
370
-1
100
AcDbLine
10
935
20
85
11
923.741669751
21
78.5
0
LINE
5
1C2
100
AcDbEntity
8
markings
6
ByLayer
62
256
370
-1
100
AcDbLine
10
935
20
85
11
928.5
21
73.741669751
0
LINE
5
1C3
100
AcDbEntity
8
markings
6
ByLayer
62
256
370
-1
100
AcDbLine
10
935
20
85
11
941.5
21
73.741669751
0
LINE
5
1C4
100
AcDbEntity
8
markings
6
ByLayer
62
256
370
-1
100
AcDbLine
10
935
20
85
11
946.258330249
21
78.5
0
LINE
5
1C5
100
AcDbEntity
8
markings
6
ByLayer
62
256
370
-1
100
AcDbLine
10
935
20
85
11
948
21
85
0
LINE
5
1C6
100
AcDbEntity
8
markings
6
ByLayer
62
256
370
-1
100
AcDbLine
10
935
20
85
11
946.258330249
21
91.5
0
LINE
5
1C7
100
AcDbEntity
8
markings
6
ByLayer
62
256
370
-1
100
AcDbLine
10
935
20
85
11
935
21
98
0
LINE
5
1C8
100
AcDbEntity
8
markings
6
ByLayer
62
256
370
-1
100
AcDbLine
10
935
20
85
11
928.5
21
96.258330249
0
LINE
5
1C9
100
AcDbEntity
8
markings
6
ByLayer
62
256
370
-1
100
AcDbLine
10
935
20
85
11
923.741669751
21
91.5
0
LINE
5
1CA
100
AcDbEntity
8
markings
6
ByLayer
62
256
370
-1
100
AcDbLine
10
935
20
85
11
941.5
21
96.258
0
CIRCLE
5
1CB
100
AcDbEntity
8
0
6
ByLayer
62
256
370
-1
100
AcDbCircle
10
905
20
115
40
3.3
0
LINE
5
1CC
100
AcDbEntity
8
markings
6
ByLayer
62
256
370
-1
100
AcDbLine
10
905
20
115
11
892
21
115
0
LINE
5
1CD
100
AcDbEntity
8
markings
6
ByLayer
62
256
370
-1
100
AcDbLine
10
905
20
115
11
893.741669751
21
108.5
0
LINE
5
1CE
100
AcDbEntity
8
markings
6
ByLayer
62
256
370
-1
100
AcDbLine
10
905
20
115
11
898.5
21
103.741669751
0
LINE
5
1CF
100
AcDbEntity
8
markings
6
ByLayer
62
256
370
-1
100
AcDbLine
10
905
20
115
11
911.5
21
103.741669751
0
LINE
5
1D0
100
AcDbEntity
8
markings
6
ByLayer
62
256
370
-1
100
AcDbLine
10
905
20
115
11
916.258330249
21
108.5
0
LINE
5
1D1
100
AcDbEntity
8
markings
6
ByLayer
62
256
370
-1
100
AcDbLine
10
905
20
115
11
918
21
115
0
LINE
5
1D2
100
AcDbEntity
8
markings
6
ByLayer
62
256
370
-1
100
AcDbLine
10
905
20
115
11
916.258330249
21
121.5
0
LINE
5
1D3
100
AcDbEntity
8
markings
6
ByLayer
62
256
370
-1
100
AcDbLine
10
905
20
115
11
905
21
128
0
LINE
5
1D4
100
AcDbEntity
8
markings
6
ByLayer
62
256
370
-1
100
AcDbLine
10
905
20
115
11
898.5
21
126.258330249
0
LINE
5
1D5
100
AcDbEntity
8
markings
6
ByLayer
62
256
370
-1
100
AcDbLine
10
905
20
115
11
893.741669751
21
121.5
0
LINE
5
1D6
100
AcDbEntity
8
markings
6
ByLayer
62
256
370
-1
100
AcDbLine
10
905
20
115
11
911.5
21
126.258
0
CIRCLE
5
1D7
100
AcDbEntity
8
0
6
ByLayer
62
256
370
-1
100
AcDbCircle
10
905
20
55
40
3.3
0
LINE
5
1D8
100
AcDbEntity
8
markings
6
ByLayer
62
256
370
-1
100
AcDbLine
10
905
20
55
11
892
21
55
0
LINE
5
1D9
100
AcDbEntity
8
markings
6
ByLayer
62
256
370
-1
100
AcDbLine
10
905
20
55
11
893.741669751
21
48.5
0
LINE
5
1DA
100
AcDbEntity
8
markings
6
ByLayer
62
256
370
-1
100
AcDbLine
10
905
20
55
11
898.5
21
43.741669751
0
LINE
5
1DB
100
AcDbEntity
8
markings
6
ByLayer
62
256
370
-1
100
AcDbLine
10
905
20
55
11
911.5
21
43.741669751
0
LINE
5
1DC
100
AcDbEntity
8
markings
6
ByLayer
62
256
370
-1
100
AcDbLine
10
905
20
55
11
916.258330249
21
48.5
0
LINE
5
1DD
100
AcDbEntity
8
markings
6
ByLayer
62
256
370
-1
100
AcDbLine
10
905
20
55
11
918
21
55
0
LINE
5
1DE
100
AcDbEntity
8
markings
6
ByLayer
62
256
370
-1
100
AcDbLine
10
905
20
55
11
916.258330249
21
61.5
0
LINE
5
1DF
100
AcDbEntity
8
markings
6
ByLayer
62
256
370
-1
100
AcDbLine
10
905
20
55
11
905
21
68
0
LINE
5
1E0
100
AcDbEntity
8
markings
6
ByLayer
62
256
370
-1
100
AcDbLine
10
905
20
55
11
898.5
21
66.258330249
0
LINE
5
1E1
100
AcDbEntity
8
markings
6
ByLayer
62
256
370
-1
100
AcDbLine
10
905
20
55
11
893.741669751
21
61.5
0
LINE
5
1E2
100
AcDbEntity
8
markings
6
ByLayer
62
256
370
-1
100
AcDbLine
10
905
20
55
11
911.5
21
66.258
0
CIRCLE
5
1E3
100
AcDbEntity
8
0
6
ByLayer
62
256
370
-1
100
AcDbCircle
10
845
20
115
40
3.3
0
LINE
5
1E4
100
AcDbEntity
8
markings
6
ByLayer
62
256
370
-1
100
AcDbLine
10
845
20
115
11
832
21
115
0
LINE
5
1E5
100
AcDbEntity
8
markings
6
ByLayer
62
256
370
-1
100
AcDbLine
10
845
20
115
11
833.741669751
21
108.5
0
LINE
5
1E6
100
AcDbEntity
8
markings
6
ByLayer
62
256
370
-1
100
AcDbLine
10
845
20
115
11
838.5
21
103.741669751
0
LINE
5
1E7
100
AcDbEntity
8
markings
6
ByLayer
62
256
370
-1
100
AcDbLine
10
845
20
115
11
851.5
21
103.741669751
0
LINE
5
1E8
100
AcDbEntity
8
markings
6
ByLayer
62
256
370
-1
100
AcDbLine
10
845
20
115
11
856.258330249
21
108.5
0
LINE
5
1E9
100
AcDbEntity
8
markings
6
ByLayer
62
256
370
-1
100
AcDbLine
10
845
20
115
11
858
21
115
0
LINE
5
1EA
100
AcDbEntity
8
markings
6
ByLayer
62
256
370
-1
100
AcDbLine
10
845
20
115
11
856.258330249
21
121.5
0
LINE
5
1EB
100
AcDbEntity
8
markings
6
ByLayer
62
256
370
-1
100
AcDbLine
10
845
20
115
11
845
21
128
0
LINE
5
1EC
100
AcDbEntity
8
markings
6
ByLayer
62
256
370
-1
100
AcDbLine
10
845
20
115
11
838.5
21
126.258330249
0
LINE
5
1ED
100
AcDbEntity
8
markings
6
ByLayer
62
256
370
-1
100
AcDbLine
10
845
20
115
11
833.741669751
21
121.5
0
LINE
5
1EE
100
AcDbEntity
8
markings
6
ByLayer
62
256
370
-1
100
AcDbLine
10
845
20
115
11
851.5
21
126.258
0
CIRCLE
5
1EF
100
AcDbEntity
8
0
6
ByLayer
62
256
370
-1
100
AcDbCircle
10
845
20
55
40
3.3
0
LINE
5
1F0
100
AcDbEntity
8
markings
6
ByLayer
62
256
370
-1
100
AcDbLine
10
845
20
55
11
832
21
55
0
LINE
5
1F1
100
AcDbEntity
8
markings
6
ByLayer
62
256
370
-1
100
AcDbLine
10
845
20
55
11
833.741669751
21
48.5
0
LINE
5
1F2
100
AcDbEntity
8
markings
6
ByLayer
62
256
370
-1
100
AcDbLine
10
845
20
55
11
838.5
21
43.741669751
0
LINE
5
1F3
100
AcDbEntity
8
markings
6
ByLayer
62
256
370
-1
100
AcDbLine
10
845
20
55
11
851.5
21
43.741669751
0
LINE
5
1F4
100
AcDbEntity
8
markings
6
ByLayer
62
256
370
-1
100
AcDbLine
10
845
20
55
11
856.258330249
21
48.5
0
LINE
5
1F5
100
AcDbEntity
8
markings
6
ByLayer
62
256
370
-1
100
AcDbLine
10
845
20
55
11
858
21
55
0
LINE
5
1F6
100
AcDbEntity
8
markings
6
ByLayer
62
256
370
-1
100
AcDbLine
10
845
20
55
11
856.258330249
21
61.5
0
LINE
5
1F7
100
AcDbEntity
8
markings
6
ByLayer
62
256
370
-1
100
AcDbLine
10
845
20
55
11
845
21
68
0
LINE
5
1F8
100
AcDbEntity
8
markings
6
ByLayer
62
256
370
-1
100
AcDbLine
10
845
20
55
11
838.5
21
66.258330249
0
LINE
5
1F9
100
AcDbEntity
8
markings
6
ByLayer
62
256
370
-1
100
AcDbLine
10
845
20
55
11
833.741669751
21
61.5
0
LINE
5
1FA
100
AcDbEntity
8
markings
6
ByLayer
62
256
370
-1
100
AcDbLine
10
845
20
55
11
851.5
21
66.258
0
CIRCLE
5
1FB
100
AcDbEntity
8
0
6
ByLayer
62
256
370
-1
100
AcDbCircle
10
945
20
175
40
1.5
0
CIRCLE
5
1FC
100
AcDbEntity
8
0
6
ByLayer
62
256
370
-1
100
AcDbCircle
10
945
20
5
40
1.5
0
CIRCLE
5
1FD
100
AcDbEntity
8
0
6
ByLayer
62
256
370
-1
100
AcDbCircle
10
805
20
175
40
1.5
0
LINE
5
1FE
100
AcDbEntity
8
0
6
ByLayer
62
256
370
-1
100
AcDbLine
10
800
20
0
11
950
21
0
0
LINE
5
1FF
100
AcDbEntity
8
0
6
ByLayer
62
256
370
-1
100
AcDbLine
10
950
20
0
11
950
21
180
0
LINE
5
200
100
AcDbEntity
8
0
6
ByLayer
62
256
370
-1
100
AcDbLine
10
950
20
180
11
800
21
180
0
LINE
5
201
100
AcDbEntity
8
0
6
ByLayer
62
256
370
-1
100
AcDbLine
10
800
20
180
11
800
21
0
0
CIRCLE
5
202
100
AcDbEntity
8
0
6
ByLayer
62
256
370
-1
100
AcDbCircle
10
875
20
95
40
3.8
0
CIRCLE
5
203
100
AcDbEntity
8
0
6
ByLayer
62
256
370
-1
100
AcDbCircle
10
875
20
75
40
3.8
0
MTEXT
5
204
100
AcDbEntity
8
markings
6
ByLayer
62
256
370
-1
100
AcDbMText
10
875
20
172
30
0
40
2.5
41
33.4226416667
71
2
72
1
1
4017 sequencer
7
romanc
210
0
220
0
230
1
50
0
73
2
44
1
0
MTEXT
5
205
100
AcDbEntity
8
markings
6
ByLayer
62
256
370
-1
100
AcDbMText
10
875
20
105
30
0
40
2.5
41
10.9523916667
71
2
72
1
1
clock
7
romanc
210
0
220
0
230
1
50
0
73
2
44
1
0
MTEXT
5
206
100
AcDbEntity
8
markings
6
ByLayer
62
256
370
-1
100
AcDbMText
10
875
20
67
30
0
40
2
41
5.42857333333
71
5
72
1
1
out
7
romanc
210
0
220
0
230
1
50
0
73
2
44
1
0
LINE
5
207
100
AcDbEntity
8
0
6
ByLayer
62
256
370
-1
100
AcDbLine
10
0
20
180
11
0
21
0
0
CIRCLE
5
208
100
AcDbEntity
8
0
6
ByLayer
62
256
370
-1
100
AcDbCircle
10
5
20
5
40
1.5
0
LINE
5
209
100
AcDbEntity
8
0
6
ByLayer
62
256
370
-1
100
AcDbLine
10
60
20
0
11
60
21
180
0
CIRCLE
5
20A
100
AcDbEntity
8
0
6
ByLayer
62
256
370
-1
100
AcDbCircle
10
55
20
175
40
1.5
0
LINE
5
20B
100
AcDbEntity
8
0
6
ByLayer
62
256
370
-1
100
AcDbLine
10
0
20
180
11
60
21
180
0
LINE
5
20C
100
AcDbEntity
8
0
6
ByLayer
62
256
370
-1
100
AcDbLine
10
60
20
0
11
0
21
0
0
MTEXT
5
20D
100
AcDbEntity
8
markings
6
ByLayer
62
256
370
-1
100
AcDbMText
10
30
20
172
30
0
40
2.5
41
33.4226416667
71
2
72
1
1
4017 sequencer
7
romanc
210
0
220
0
230
1
50
0
73
2
44
1
0
CIRCLE
5
20E
100
AcDbEntity
8
0
6
ByLayer
62
256
370
-1
100
AcDbCircle
10
15
20
105
40
3.3
0
LINE
5
20F
100
AcDbEntity
8
markings
6
ByLayer
62
256
370
-1
100
AcDbLine
10
15
20
105
11
2
21
105
0
LINE
5
210
100
AcDbEntity
8
markings
6
ByLayer
62
256
370
-1
100
AcDbLine
10
15
20
105
11
3.741669751
21
98.5
0
LINE
5
211
100
AcDbEntity
8
markings
6
ByLayer
62
256
370
-1
100
AcDbLine
10
15
20
105
11
8.5
21
93.741669751
0
LINE
5
212
100
AcDbEntity
8
markings
6
ByLayer
62
256
370
-1
100
AcDbLine
10
15
20
105
11
21.5
21
93.741669751
0
LINE
5
213
100
AcDbEntity
8
markings
6
ByLayer
62
256
370
-1
100
AcDbLine
10
15
20
105
11
26.258330249
21
98.5
0
LINE
5
214
100
AcDbEntity
8
markings
6
ByLayer
62
256
370
-1
100
AcDbLine
10
15
20
105
11
28
21
105
0
LINE
5
215
100
AcDbEntity
8
markings
6
ByLayer
62
256
370
-1
100
AcDbLine
10
15
20
105
11
26.258330249
21
111.5
0
LINE
5
216
100
AcDbEntity
8
markings
6
ByLayer
62
256
370
-1
100
AcDbLine
10
15
20
105
11
15
21
118
0
LINE
5
217
100
AcDbEntity
8
markings
6
ByLayer
62
256
370
-1
100
AcDbLine
10
15
20
105
11
8.5
21
116.258330249
0
LINE
5
218
100
AcDbEntity
8
markings
6
ByLayer
62
256
370
-1
100
AcDbLine
10
15
20
105
11
3.741669751
21
111.5
0
LINE
5
219
100
AcDbEntity
8
markings
6
ByLayer
62
256
370
-1
100
AcDbLine
10
15
20
105
11
21.5
21
116.258
0
CIRCLE
5
21A
100
AcDbEntity
8
0
6
ByLayer
62
256
370
-1
100
AcDbCircle
10
15
20
75
40
3.3
0
LINE
5
21B
100
AcDbEntity
8
markings
6
ByLayer
62
256
370
-1
100
AcDbLine
10
15
20
75
11
2
21
75
0
LINE
5
21C
100
AcDbEntity
8
markings
6
ByLayer
62
256
370
-1
100
AcDbLine
10
15
20
75
11
3.741669751
21
68.5
0
LINE
5
21D
100
AcDbEntity
8
markings
6
ByLayer
62
256
370
-1
100
AcDbLine
10
15
20
75
11
8.5
21
63.741669751
0
LINE
5
21E
100
AcDbEntity
8
markings
6
ByLayer
62
256
370
-1
100
AcDbLine
10
15
20
75
11
21.5
21
63.741669751
0
LINE
5
21F
100
AcDbEntity
8
markings
6
ByLayer
62
256
370
-1
100
AcDbLine
10
15
20
75
11
26.258330249
21
68.5
0
LINE
5
220
100
AcDbEntity
8
markings
6
ByLayer
62
256
370
-1
100
AcDbLine
10
15
20
75
11
28
21
75
0
LINE
5
221
100
AcDbEntity
8
markings
6
ByLayer
62
256
370
-1
100
AcDbLine
10
15
20
75
11
26.258330249
21
81.5
0
LINE
5
222
100
AcDbEntity
8
markings
6
ByLayer
62
256
370
-1
100
AcDbLine
10
15
20
75
11
15
21
88
0
LINE
5
223
100
AcDbEntity
8
markings
6
ByLayer
62
256
370
-1
100
AcDbLine
10
15
20
75
11
8.5
21
86.258330249
0
LINE
5
224
100
AcDbEntity
8
markings
6
ByLayer
62
256
370
-1
100
AcDbLine
10
15
20
75
11
3.741669751
21
81.5
0
LINE
5
225
100
AcDbEntity
8
markings
6
ByLayer
62
256
370
-1
100
AcDbLine
10
15
20
75
11
21.5
21
86.258
0
CIRCLE
5
226
100
AcDbEntity
8
0
6
ByLayer
62
256
370
-1
100
AcDbCircle
10
15
20
45
40
3.3
0
LINE
5
227
100
AcDbEntity
8
markings
6
ByLayer
62
256
370
-1
100
AcDbLine
10
15
20
45
11
2
21
45
0
LINE
5
228
100
AcDbEntity
8
markings
6
ByLayer
62
256
370
-1
100
AcDbLine
10
15
20
45
11
3.741669751
21
38.5
0
LINE
5
229
100
AcDbEntity
8
markings
6
ByLayer
62
256
370
-1
100
AcDbLine
10
15
20
45
11
8.5
21
33.741669751
0
LINE
5
22A
100
AcDbEntity
8
markings
6
ByLayer
62
256
370
-1
100
AcDbLine
10
15
20
45
11
21.5
21
33.741669751
0
LINE
5
22B
100
AcDbEntity
8
markings
6
ByLayer
62
256
370
-1
100
AcDbLine
10
15
20
45
11
26.258330249
21
38.5
0
LINE
5
22C
100
AcDbEntity
8
markings
6
ByLayer
62
256
370
-1
100
AcDbLine
10
15
20
45
11
28
21
45
0
LINE
5
22D
100
AcDbEntity
8
markings
6
ByLayer
62
256
370
-1
100
AcDbLine
10
15
20
45
11
26.258330249
21
51.5
0
LINE
5
22E
100
AcDbEntity
8
markings
6
ByLayer
62
256
370
-1
100
AcDbLine
10
15
20
45
11
15
21
58
0
LINE
5
22F
100
AcDbEntity
8
markings
6
ByLayer
62
256
370
-1
100
AcDbLine
10
15
20
45
11
8.5
21
56.258330249
0
LINE
5
230
100
AcDbEntity
8
markings
6
ByLayer
62
256
370
-1
100
AcDbLine
10
15
20
45
11
3.741669751
21
51.5
0
LINE
5
231
100
AcDbEntity
8
markings
6
ByLayer
62
256
370
-1
100
AcDbLine
10
15
20
45
11
21.5
21
56.258
0
CIRCLE
5
232
100
AcDbEntity
8
0
6
ByLayer
62
256
370
-1
100
AcDbCircle
10
15
20
135
40
3.3
0
LINE
5
233
100
AcDbEntity
8
markings
6
ByLayer
62
256
370
-1
100
AcDbLine
10
15
20
135
11
2
21
135
0
LINE
5
234
100
AcDbEntity
8
markings
6
ByLayer
62
256
370
-1
100
AcDbLine
10
15
20
135
11
3.741669751
21
128.5
0
LINE
5
235
100
AcDbEntity
8
markings
6
ByLayer
62
256
370
-1
100
AcDbLine
10
15
20
135
11
8.5
21
123.741669751
0
LINE
5
236
100
AcDbEntity
8
markings
6
ByLayer
62
256
370
-1
100
AcDbLine
10
15
20
135
11
21.5
21
123.741669751
0
LINE
5
237
100
AcDbEntity
8
markings
6
ByLayer
62
256
370
-1
100
AcDbLine
10
15
20
135
11
26.258330249
21
128.5
0
LINE
5
238
100
AcDbEntity
8
markings
6
ByLayer
62
256
370
-1
100
AcDbLine
10
15
20
135
11
28
21
135
0
LINE
5
239
100
AcDbEntity
8
markings
6
ByLayer
62
256
370
-1
100
AcDbLine
10
15
20
135
11
26.258330249
21
141.5
0
LINE
5
23A
100
AcDbEntity
8
markings
6
ByLayer
62
256
370
-1
100
AcDbLine
10
15
20
135
11
15
21
148
0
LINE
5
23B
100
AcDbEntity
8
markings
6
ByLayer
62
256
370
-1
100
AcDbLine
10
15
20
135
11
8.5
21
146.258330249
0
LINE
5
23C
100
AcDbEntity
8
markings
6
ByLayer
62
256
370
-1
100
AcDbLine
10
15
20
135
11
3.741669751
21
141.5
0
LINE
5
23D
100
AcDbEntity
8
markings
6
ByLayer
62
256
370
-1
100
AcDbLine
10
15
20
135
11
21.5
21
146.258
0
CIRCLE
5
23E
100
AcDbEntity
8
0
6
ByLayer
62
256
370
-1
100
AcDbCircle
10
45
20
105
40
3.3
0
LINE
5
23F
100
AcDbEntity
8
markings
6
ByLayer
62
256
370
-1
100
AcDbLine
10
45
20
105
11
32
21
105
0
LINE
5
240
100
AcDbEntity
8
markings
6
ByLayer
62
256
370
-1
100
AcDbLine
10
45
20
105
11
33.741669751
21
98.5
0
LINE
5
241
100
AcDbEntity
8
markings
6
ByLayer
62
256
370
-1
100
AcDbLine
10
45
20
105
11
38.5
21
93.741669751
0
LINE
5
242
100
AcDbEntity
8
markings
6
ByLayer
62
256
370
-1
100
AcDbLine
10
45
20
105
11
51.5
21
93.741669751
0
LINE
5
243
100
AcDbEntity
8
markings
6
ByLayer
62
256
370
-1
100
AcDbLine
10
45
20
105
11
56.258330249
21
98.5
0
LINE
5
244
100
AcDbEntity
8
markings
6
ByLayer
62
256
370
-1
100
AcDbLine
10
45
20
105
11
58
21
105
0
LINE
5
245
100
AcDbEntity
8
markings
6
ByLayer
62
256
370
-1
100
AcDbLine
10
45
20
105
11
56.258330249
21
111.5
0
LINE
5
246
100
AcDbEntity
8
markings
6
ByLayer
62
256
370
-1
100
AcDbLine
10
45
20
105
11
45
21
118
0
LINE
5
247
100
AcDbEntity
8
markings
6
ByLayer
62
256
370
-1
100
AcDbLine
10
45
20
105
11
38.5
21
116.258330249
0
LINE
5
248
100
AcDbEntity
8
markings
6
ByLayer
62
256
370
-1
100
AcDbLine
10
45
20
105
11
33.741669751
21
111.5
0
LINE
5
249
100
AcDbEntity
8
markings
6
ByLayer
62
256
370
-1
100
AcDbLine
10
45
20
105
11
51.5
21
116.258
0
CIRCLE
5
24A
100
AcDbEntity
8
0
6
ByLayer
62
256
370
-1
100
AcDbCircle
10
45
20
75
40
3.3
0
LINE
5
24B
100
AcDbEntity
8
markings
6
ByLayer
62
256
370
-1
100
AcDbLine
10
45
20
75
11
32
21
75
0
LINE
5
24C
100
AcDbEntity
8
markings
6
ByLayer
62
256
370
-1
100
AcDbLine
10
45
20
75
11
33.741669751
21
68.5
0
LINE
5
24D
100
AcDbEntity
8
markings
6
ByLayer
62
256
370
-1
100
AcDbLine
10
45
20
75
11
38.5
21
63.741669751
0
LINE
5
24E
100
AcDbEntity
8
markings
6
ByLayer
62
256
370
-1
100
AcDbLine
10
45
20
75
11
51.5
21
63.741669751
0
LINE
5
24F
100
AcDbEntity
8
markings
6
ByLayer
62
256
370
-1
100
AcDbLine
10
45
20
75
11
56.258330249
21
68.5
0
LINE
5
250
100
AcDbEntity
8
markings
6
ByLayer
62
256
370
-1
100
AcDbLine
10
45
20
75
11
58
21
75
0
LINE
5
251
100
AcDbEntity
8
markings
6
ByLayer
62
256
370
-1
100
AcDbLine
10
45
20
75
11
56.258330249
21
81.5
0
LINE
5
252
100
AcDbEntity
8
markings
6
ByLayer
62
256
370
-1
100
AcDbLine
10
45
20
75
11
45
21
88
0
LINE
5
253
100
AcDbEntity
8
markings
6
ByLayer
62
256
370
-1
100
AcDbLine
10
45
20
75
11
38.5
21
86.258330249
0
LINE
5
254
100
AcDbEntity
8
markings
6
ByLayer
62
256
370
-1
100
AcDbLine
10
45
20
75
11
33.741669751
21
81.5
0
LINE
5
255
100
AcDbEntity
8
markings
6
ByLayer
62
256
370
-1
100
AcDbLine
10
45
20
75
11
51.5
21
86.258
0
CIRCLE
5
256
100
AcDbEntity
8
0
6
ByLayer
62
256
370
-1
100
AcDbCircle
10
45
20
45
40
3.3
0
LINE
5
257
100
AcDbEntity
8
markings
6
ByLayer
62
256
370
-1
100
AcDbLine
10
45
20
45
11
32
21
45
0
LINE
5
258
100
AcDbEntity
8
markings
6
ByLayer
62
256
370
-1
100
AcDbLine
10
45
20
45
11
33.741669751
21
38.5
0
LINE
5
259
100
AcDbEntity
8
markings
6
ByLayer
62
256
370
-1
100
AcDbLine
10
45
20
45
11
38.5
21
33.741669751
0
LINE
5
25A
100
AcDbEntity
8
markings
6
ByLayer
62
256
370
-1
100
AcDbLine
10
45
20
45
11
51.5
21
33.741669751
0
LINE
5
25B
100
AcDbEntity
8
markings
6
ByLayer
62
256
370
-1
100
AcDbLine
10
45
20
45
11
56.258330249
21
38.5
0
LINE
5
25C
100
AcDbEntity
8
markings
6
ByLayer
62
256
370
-1
100
AcDbLine
10
45
20
45
11
58
21
45
0
LINE
5
25D
100
AcDbEntity
8
markings
6
ByLayer
62
256
370
-1
100
AcDbLine
10
45
20
45
11
56.258330249
21
51.5
0
LINE
5
25E
100
AcDbEntity
8
markings
6
ByLayer
62
256
370
-1
100
AcDbLine
10
45
20
45
11
45
21
58
0
LINE
5
25F
100
AcDbEntity
8
markings
6
ByLayer
62
256
370
-1
100
AcDbLine
10
45
20
45
11
38.5
21
56.258330249
0
LINE
5
260
100
AcDbEntity
8
markings
6
ByLayer
62
256
370
-1
100
AcDbLine
10
45
20
45
11
33.741669751
21
51.5
0
LINE
5
261
100
AcDbEntity
8
markings
6
ByLayer
62
256
370
-1
100
AcDbLine
10
45
20
45
11
51.5
21
56.258
0
CIRCLE
5
262
100
AcDbEntity
8
0
6
ByLayer
62
256
370
-1
100
AcDbCircle
10
45
20
135
40
3.3
0
LINE
5
263
100
AcDbEntity
8
markings
6
ByLayer
62
256
370
-1
100
AcDbLine
10
45
20
135
11
32
21
135
0
LINE
5
264
100
AcDbEntity
8
markings
6
ByLayer
62
256
370
-1
100
AcDbLine
10
45
20
135
11
33.741669751
21
128.5
0
LINE
5
265
100
AcDbEntity
8
markings
6
ByLayer
62
256
370
-1
100
AcDbLine
10
45
20
135
11
38.5
21
123.741669751
0
LINE
5
266
100
AcDbEntity
8
markings
6
ByLayer
62
256
370
-1
100
AcDbLine
10
45
20
135
11
51.5
21
123.741669751
0
LINE
5
267
100
AcDbEntity
8
markings
6
ByLayer
62
256
370
-1
100
AcDbLine
10
45
20
135
11
56.258330249
21
128.5
0
LINE
5
268
100
AcDbEntity
8
markings
6
ByLayer
62
256
370
-1
100
AcDbLine
10
45
20
135
11
58
21
135
0
LINE
5
269
100
AcDbEntity
8
markings
6
ByLayer
62
256
370
-1
100
AcDbLine
10
45
20
135
11
56.258330249
21
141.5
0
LINE
5
26A
100
AcDbEntity
8
markings
6
ByLayer
62
256
370
-1
100
AcDbLine
10
45
20
135
11
45
21
148
0
LINE
5
26B
100
AcDbEntity
8
markings
6
ByLayer
62
256
370
-1
100
AcDbLine
10
45
20
135
11
38.5
21
146.258330249
0
LINE
5
26C
100
AcDbEntity
8
markings
6
ByLayer
62
256
370
-1
100
AcDbLine
10
45
20
135
11
33.741669751
21
141.5
0
LINE
5
26D
100
AcDbEntity
8
markings
6
ByLayer
62
256
370
-1
100
AcDbLine
10
45
20
135
11
51.5
21
146.258
0
CIRCLE
5
26E
100
AcDbEntity
8
0
6
ByLayer
62
256
370
-1
100
AcDbCircle
10
30
20
20
40
3.8
0
CIRCLE
5
26F
100
AcDbEntity
8
0
6
ByLayer
62
256
370
-1
100
AcDbCircle
10
30
20
160
40
3.8
0
CIRCLE
5
270
100
AcDbEntity
8
0
6
ByLayer
62
256
370
-1
100
AcDbCircle
10
405
20
5
40
1.5
0
CIRCLE
5
271
100
AcDbEntity
8
0
6
ByLayer
62
256
370
-1
100
AcDbCircle
10
445
20
148
40
3.3
0
LINE
5
272
100
AcDbEntity
8
markings
6
ByLayer
62
256
370
-1
100
AcDbLine
10
445
20
148
11
432
21
148
0
LINE
5
273
100
AcDbEntity
8
markings
6
ByLayer
62
256
370
-1
100
AcDbLine
10
445
20
148
11
433.741669751
21
141.5
0
LINE
5
274
100
AcDbEntity
8
markings
6
ByLayer
62
256
370
-1
100
AcDbLine
10
445
20
148
11
438.5
21
136.741669751
0
LINE
5
275
100
AcDbEntity
8
markings
6
ByLayer
62
256
370
-1
100
AcDbLine
10
445
20
148
11
451.5
21
136.741669751
0
LINE
5
276
100
AcDbEntity
8
markings
6
ByLayer
62
256
370
-1
100
AcDbLine
10
445
20
148
11
458
21
148
0
LINE
5
277
100
AcDbEntity
8
markings
6
ByLayer
62
256
370
-1
100
AcDbLine
10
445
20
148
11
456.258330249
21
154.5
0
LINE
5
278
100
AcDbEntity
8
markings
6
ByLayer
62
256
370
-1
100
AcDbLine
10
445
20
148
11
445
21
161
0
LINE
5
279
100
AcDbEntity
8
markings
6
ByLayer
62
256
370
-1
100
AcDbLine
10
445
20
148
11
438.5
21
159.258330249
0
LINE
5
27A
100
AcDbEntity
8
markings
6
ByLayer
62
256
370
-1
100
AcDbLine
10
445
20
148
11
433.741669751
21
154.5
0
LINE
5
27B
100
AcDbEntity
8
markings
6
ByLayer
62
256
370
-1
100
AcDbLine
10
445
20
148
11
451.5
21
159.258
0
CIRCLE
5
27C
100
AcDbEntity
8
0
6
ByLayer
62
256
370
-1
100
AcDbCircle
10
475
20
131
40
3.3
0
LINE
5
27D
100
AcDbEntity
8
markings
6
ByLayer
62
256
370
-1
100
AcDbLine
10
475
20
131
11
462
21
131
0
LINE
5
27E
100
AcDbEntity
8
markings
6
ByLayer
62
256
370
-1
100
AcDbLine
10
475
20
131
11
468.5
21
119.741669751
0
LINE
5
27F
100
AcDbEntity
8
markings
6
ByLayer
62
256
370
-1
100
AcDbLine
10
475
20
131
11
481.5
21
119.741669751
0
LINE
5
280
100
AcDbEntity
8
markings
6
ByLayer
62
256
370
-1
100
AcDbLine
10
475
20
131
11
486.258330249
21
124.5
0
LINE
5
281
100
AcDbEntity
8
markings
6
ByLayer
62
256
370
-1
100
AcDbLine
10
475
20
131
11
488
21
131
0
LINE
5
282
100
AcDbEntity
8
markings
6
ByLayer
62
256
370
-1
100
AcDbLine
10
475
20
131
11
486.258330249
21
137.5
0
LINE
5
283
100
AcDbEntity
8
markings
6
ByLayer
62
256
370
-1
100
AcDbLine
10
475
20
131
11
475
21
144
0
LINE
5
284
100
AcDbEntity
8
markings
6
ByLayer
62
256
370
-1
100
AcDbLine
10
475
20
131
11
468.5
21
142.258330249
0
LINE
5
285
100
AcDbEntity
8
markings
6
ByLayer
62
256
370
-1
100
AcDbLine
10
475
20
131
11
481.5
21
142.258
0
LINE
5
286
100
AcDbEntity
8
markings
6
ByLayer
62
256
370
-1
100
AcDbLine
10
475
20
131
11
445
21
148
0
CIRCLE
5
287
100
AcDbEntity
8
0
6
ByLayer
62
256
370
-1
100
AcDbCircle
10
445
20
114
40
3.3
0
LINE
5
288
100
AcDbEntity
8
markings
6
ByLayer
62
256
370
-1
100
AcDbLine
10
445
20
114
11
432
21
114
0
LINE
5
289
100
AcDbEntity
8
markings
6
ByLayer
62
256
370
-1
100
AcDbLine
10
445
20
114
11
433.741669751
21
107.5
0
LINE
5
28A
100
AcDbEntity
8
markings
6
ByLayer
62
256
370
-1
100
AcDbLine
10
445
20
114
11
438.5
21
102.741669751
0
LINE
5
28B
100
AcDbEntity
8
markings
6
ByLayer
62
256
370
-1
100
AcDbLine
10
445
20
114
11
451.5
21
102.741669751
0
LINE
5
28C
100
AcDbEntity
8
markings
6
ByLayer
62
256
370
-1
100
AcDbLine
10
445
20
114
11
458
21
114
0
LINE
5
28D
100
AcDbEntity
8
markings
6
ByLayer
62
256
370
-1
100
AcDbLine
10
445
20
114
11
445
21
127
0
LINE
5
28E
100
AcDbEntity
8
markings
6
ByLayer
62
256
370
-1
100
AcDbLine
10
445
20
114
11
438.5
21
125.258330249
0
LINE
5
28F
100
AcDbEntity
8
markings
6
ByLayer
62
256
370
-1
100
AcDbLine
10
445
20
114
11
433.741669751
21
120.5
0
LINE
5
290
100
AcDbEntity
8
markings
6
ByLayer
62
256
370
-1
100
AcDbLine
10
445
20
114
11
451.5
21
125.258
0
CIRCLE
5
291
100
AcDbEntity
8
0
6
ByLayer
62
256
370
-1
100
AcDbCircle
10
475
20
97
40
3.3
0
LINE
5
292
100
AcDbEntity
8
markings
6
ByLayer
62
256
370
-1
100
AcDbLine
10
475
20
97
11
462
21
97
0
LINE
5
293
100
AcDbEntity
8
markings
6
ByLayer
62
256
370
-1
100
AcDbLine
10
475
20
97
11
468.5
21
85.741669751
0
LINE
5
294
100
AcDbEntity
8
markings
6
ByLayer
62
256
370
-1
100
AcDbLine
10
475
20
97
11
481.5
21
85.741669751
0
LINE
5
295
100
AcDbEntity
8
markings
6
ByLayer
62
256
370
-1
100
AcDbLine
10
475
20
97
11
486.258330249
21
90.5
0
LINE
5
296
100
AcDbEntity
8
markings
6
ByLayer
62
256
370
-1
100
AcDbLine
10
475
20
97
11
488
21
97
0
LINE
5
297
100
AcDbEntity
8
markings
6
ByLayer
62
256
370
-1
100
AcDbLine
10
475
20
97
11
486.258330249
21
103.5
0
LINE
5
298
100
AcDbEntity
8
markings
6
ByLayer
62
256
370
-1
100
AcDbLine
10
475
20
97
11
475
21
110
0
LINE
5
299
100
AcDbEntity
8
markings
6
ByLayer
62
256
370
-1
100
AcDbLine
10
475
20
97
11
468.5
21
108.258330249
0
LINE
5
29A
100
AcDbEntity
8
markings
6
ByLayer
62
256
370
-1
100
AcDbLine
10
475
20
97
11
481.5
21
108.258
0
LINE
5
29B
100
AcDbEntity
8
markings
6
ByLayer
62
256
370
-1
100
AcDbLine
10
475
20
97
11
445
21
114
0
CIRCLE
5
29C
100
AcDbEntity
8
0
6
ByLayer
62
256
370
-1
100
AcDbCircle
10
445
20
81
40
3.3
0
LINE
5
29D
100
AcDbEntity
8
markings
6
ByLayer
62
256
370
-1
100
AcDbLine
10
445
20
81
11
432
21
81
0
LINE
5
29E
100
AcDbEntity
8
markings
6
ByLayer
62
256
370
-1
100
AcDbLine
10
445
20
81
11
433.741669751
21
74.5
0
LINE
5
29F
100
AcDbEntity
8
markings
6
ByLayer
62
256
370
-1
100
AcDbLine
10
445
20
81
11
438.5
21
69.741669751
0
LINE
5
2A0
100
AcDbEntity
8
markings
6
ByLayer
62
256
370
-1
100
AcDbLine
10
445
20
81
11
451.5
21
69.741669751
0
LINE
5
2A1
100
AcDbEntity
8
markings
6
ByLayer
62
256
370
-1
100
AcDbLine
10
445
20
81
11
458
21
81
0
LINE
5
2A2
100
AcDbEntity
8
markings
6
ByLayer
62
256
370
-1
100
AcDbLine
10
445
20
81
11
445
21
94
0
LINE
5
2A3
100
AcDbEntity
8
markings
6
ByLayer
62
256
370
-1
100
AcDbLine
10
445
20
81
11
438.5
21
92.258330249
0
LINE
5
2A4
100
AcDbEntity
8
markings
6
ByLayer
62
256
370
-1
100
AcDbLine
10
445
20
81
11
433.741669751
21
87.5
0
LINE
5
2A5
100
AcDbEntity
8
markings
6
ByLayer
62
256
370
-1
100
AcDbLine
10
445
20
81
11
451.5
21
92.258
0
CIRCLE
5
2A6
100
AcDbEntity
8
0
6
ByLayer
62
256
370
-1
100
AcDbCircle
10
475
20
64
40
3.3
0
LINE
5
2A7
100
AcDbEntity
8
markings
6
ByLayer
62
256
370
-1
100
AcDbLine
10
475
20
64
11
462
21
64
0
LINE
5
2A8
100
AcDbEntity
8
markings
6
ByLayer
62
256
370
-1
100
AcDbLine
10
475
20
64
11
468.5
21
52.741669751
0
LINE
5
2A9
100
AcDbEntity
8
markings
6
ByLayer
62
256
370
-1
100
AcDbLine
10
475
20
64
11
481.5
21
52.741669751
0
LINE
5
2AA
100
AcDbEntity
8
markings
6
ByLayer
62
256
370
-1
100
AcDbLine
10
475
20
64
11
486.258330249
21
57.5
0
LINE
5
2AB
100
AcDbEntity
8
markings
6
ByLayer
62
256
370
-1
100
AcDbLine
10
475
20
64
11
488
21
64
0
LINE
5
2AC
100
AcDbEntity
8
markings
6
ByLayer
62
256
370
-1
100
AcDbLine
10
475
20
64
11
486.258330249
21
70.5
0
LINE
5
2AD
100
AcDbEntity
8
markings
6
ByLayer
62
256
370
-1
100
AcDbLine
10
475
20
64
11
475
21
77
0
LINE
5
2AE
100
AcDbEntity
8
markings
6
ByLayer
62
256
370
-1
100
AcDbLine
10
475
20
64
11
468.5
21
75.258330249
0
LINE
5
2AF
100
AcDbEntity
8
markings
6
ByLayer
62
256
370
-1
100
AcDbLine
10
475
20
64
11
481.5
21
75.258
0
LINE
5
2B0
100
AcDbEntity
8
markings
6
ByLayer
62
256
370
-1
100
AcDbLine
10
475
20
64
11
445
21
81
0
CIRCLE
5
2B1
100
AcDbEntity
8
0
6
ByLayer
62
256
370
-1
100
AcDbCircle
10
445
20
47
40
3.3
0
LINE
5
2B2
100
AcDbEntity
8
markings
6
ByLayer
62
256
370
-1
100
AcDbLine
10
445
20
47
11
432
21
47
0
LINE
5
2B3
100
AcDbEntity
8
markings
6
ByLayer
62
256
370
-1
100
AcDbLine
10
445
20
47
11
433.741669751
21
40.5
0
LINE
5
2B4
100
AcDbEntity
8
markings
6
ByLayer
62
256
370
-1
100
AcDbLine
10
445
20
47
11
438.5
21
35.741669751
0
LINE
5
2B5
100
AcDbEntity
8
markings
6
ByLayer
62
256
370
-1
100
AcDbLine
10
445
20
47
11
451.5
21
35.741669751
0
LINE
5
2B6
100
AcDbEntity
8
markings
6
ByLayer
62
256
370
-1
100
AcDbLine
10
445
20
47
11
458
21
47
0
LINE
5
2B7
100
AcDbEntity
8
markings
6
ByLayer
62
256
370
-1
100
AcDbLine
10
445
20
47
11
445
21
60
0
LINE
5
2B8
100
AcDbEntity
8
markings
6
ByLayer
62
256
370
-1
100
AcDbLine
10
445
20
47
11
438.5
21
58.258330249
0
LINE
5
2B9
100
AcDbEntity
8
markings
6
ByLayer
62
256
370
-1
100
AcDbLine
10
445
20
47
11
433.741669751
21
53.5
0
LINE
5
2BA
100
AcDbEntity
8
markings
6
ByLayer
62
256
370
-1
100
AcDbLine
10
445
20
47
11
451.5
21
58.258
0
CIRCLE
5
2BB
100
AcDbEntity
8
0
6
ByLayer
62
256
370
-1
100
AcDbCircle
10
475
20
30
40
3.3
0
LINE
5
2BC
100
AcDbEntity
8
markings
6
ByLayer
62
256
370
-1
100
AcDbLine
10
475
20
30
11
462
21
30
0
LINE
5
2BD
100
AcDbEntity
8
markings
6
ByLayer
62
256
370
-1
100
AcDbLine
10
475
20
30
11
463.741669751
21
23.5
0
LINE
5
2BE
100
AcDbEntity
8
markings
6
ByLayer
62
256
370
-1
100
AcDbLine
10
475
20
30
11
468.5
21
18.741669751
0
LINE
5
2BF
100
AcDbEntity
8
markings
6
ByLayer
62
256
370
-1
100
AcDbLine
10
475
20
30
11
481.5
21
18.741669751
0
LINE
5
2C0
100
AcDbEntity
8
markings
6
ByLayer
62
256
370
-1
100
AcDbLine
10
475
20
30
11
486.258330249
21
23.5
0
LINE
5
2C1
100
AcDbEntity
8
markings
6
ByLayer
62
256
370
-1
100
AcDbLine
10
475
20
30
11
488
21
30
0
LINE
5
2C2
100
AcDbEntity
8
markings
6
ByLayer
62
256
370
-1
100
AcDbLine
10
475
20
30
11
486.258330249
21
36.5
0
LINE
5
2C3
100
AcDbEntity
8
markings
6
ByLayer
62
256
370
-1
100
AcDbLine
10
475
20
30
11
475
21
43
0
LINE
5
2C4
100
AcDbEntity
8
markings
6
ByLayer
62
256
370
-1
100
AcDbLine
10
475
20
30
11
468.5
21
41.258330249
0
LINE
5
2C5
100
AcDbEntity
8
markings
6
ByLayer
62
256
370
-1
100
AcDbLine
10
475
20
30
11
481.5
21
41.258
0
LINE
5
2C6
100
AcDbEntity
8
markings
6
ByLayer
62
256
370
-1
100
AcDbLine
10
475
20
30
11
445
21
47
0
LINE
5
2C7
100
AcDbEntity
8
markings
6
ByLayer
62
256
370
-1
100
AcDbLine
10
475
20
131
11
445
21
114
0
LINE
5
2C8
100
AcDbEntity
8
markings
6
ByLayer
62
256
370
-1
100
AcDbLine
10
475
20
97
11
445
21
81
0
LINE
5
2C9
100
AcDbEntity
8
markings
6
ByLayer
62
256
370
-1
100
AcDbLine
10
475
20
64
11
445
21
47
0
CIRCLE
5
2CA
100
AcDbEntity
8
0
6
ByLayer
62
256
370
-1
100
AcDbCircle
10
425
20
148
40
3
0
CIRCLE
5
2CB
100
AcDbEntity
8
0
6
ByLayer
62
256
370
-1
100
AcDbCircle
10
425
20
114
40
3
0
CIRCLE
5
2CC
100
AcDbEntity
8
0
6
ByLayer
62
256
370
-1
100
AcDbCircle
10
425
20
81
40
3
0
CIRCLE
5
2CD
100
AcDbEntity
8
0
6
ByLayer
62
256
370
-1
100
AcDbCircle
10
425
20
47
40
3
0
CIRCLE
5
2CE
100
AcDbEntity
8
0
6
ByLayer
62
256
370
-1
100
AcDbCircle
10
495
20
131
40
3
0
CIRCLE
5
2CF
100
AcDbEntity
8
0
6
ByLayer
62
256
370
-1
100
AcDbCircle
10
495
20
97
40
3
0
CIRCLE
5
2D0
100
AcDbEntity
8
0
6
ByLayer
62
256
370
-1
100
AcDbCircle
10
495
20
64
40
3
0
CIRCLE
5
2D1
100
AcDbEntity
8
0
6
ByLayer
62
256
370
-1
100
AcDbCircle
10
495
20
30
40
3
0
LINE
5
2D2
100
AcDbEntity
8
0
6
ByLayer
62
256
370
-1
100
AcDbLine
10
400
20
0
11
520
21
0
0
LINE
5
2D3
100
AcDbEntity
8
0
6
ByLayer
62
256
370
-1
100
AcDbLine
10
520
20
0
11
520
21
180
0
LINE
5
2D4
100
AcDbEntity
8
0
6
ByLayer
62
256
370
-1
100
AcDbLine
10
520
20
180
11
400
21
180
0
LINE
5
2D5
100
AcDbEntity
8
0
6
ByLayer
62
256
370
-1
100
AcDbLine
10
400
20
180
11
400
21
0
0
CIRCLE
5
2D6
100
AcDbEntity
8
0
6
ByLayer
62
256
370
-1
100
AcDbCircle
10
515
20
175
40
1.5
0
CIRCLE
5
2D7
100
AcDbEntity
8
0
6
ByLayer
62
256
370
-1
100
AcDbCircle
10
507
20
131
40
3
0
CIRCLE
5
2D8
100
AcDbEntity
8
0
6
ByLayer
62
256
370
-1
100
AcDbCircle
10
507
20
97
40
3
0
CIRCLE
5
2D9
100
AcDbEntity
8
0
6
ByLayer
62
256
370
-1
100
AcDbCircle
10
507
20
64
40
3
0
CIRCLE
5
2DA
100
AcDbEntity
8
0
6
ByLayer
62
256
370
-1
100
AcDbCircle
10
507
20
30
40
3
0
CIRCLE
5
2DB
100
AcDbEntity
8
0
6
ByLayer
62
256
370
-1
100
AcDbCircle
10
413
20
47
40
3
0
CIRCLE
5
2DC
100
AcDbEntity
8
0
6
ByLayer
62
256
370
-1
100
AcDbCircle
10
413
20
81
40
3
0
CIRCLE
5
2DD
100
AcDbEntity
8
0
6
ByLayer
62
256
370
-1
100
AcDbCircle
10
413
20
114
40
3
0
CIRCLE
5
2DE
100
AcDbEntity
8
0
6
ByLayer
62
256
370
-1
100
AcDbCircle
10
413
20
148
40
3
0
CIRCLE
5
2DF
100
AcDbEntity
8
0
6
ByLayer
62
256
370
-1
100
AcDbCircle
10
495
20
154
40
3.8
0
CIRCLE
5
2E0
100
AcDbEntity
8
0
6
ByLayer
62
256
370
-1
100
AcDbCircle
10
425
20
22
40
3.8
0
MTEXT
5
2E1
100
AcDbEntity
8
markings
6
ByLayer
62
256
370
-1
100
AcDbMText
10
460
20
172
30
0
40
2.5
41
33.4226416667
71
2
72
1
1
4017 sequencer
7
romanc
210
0
220
0
230
1
50
0
73
2
44
1
0
MTEXT
5
2E2
100
AcDbEntity
8
markings
6
ByLayer
62
256
370
-1
100
AcDbMText
10
512.4
20
131.3
30
0
40
2
41
4.38095777778
71
4
72
1
1
off
7
romanc
210
0
220
0
230
1
50
0
73
2
44
1
0
MTEXT
5
2E3
100
AcDbEntity
8
markings
6
ByLayer
62
256
370
-1
100
AcDbMText
10
507
20
123
30
0
40
2
41
8.47619555556
71
5
72
1
1
reset
7
romanc
210
0
220
0
230
1
50
0
73
2
44
1
0
MTEXT
5
2E4
100
AcDbEntity
8
markings
6
ByLayer
62
256
370
-1
100
AcDbMText
10
507
20
139
30
0
40
2
41
3.71428888889
71
5
72
1
1
on
7
romanc
210
0
220
0
230
1
50
0
73
2
44
1
0
MTEXT
5
2E5
100
AcDbEntity
8
markings
6
ByLayer
62
256
370
-1
100
AcDbMText
10
512.4
20
97.3
30
0
40
2
41
4.38095777778
71
4
72
1
1
off
7
romanc
210
0
220
0
230
1
50
0
73
2
44
1
0
MTEXT
5
2E6
100
AcDbEntity
8
markings
6
ByLayer
62
256
370
-1
100
AcDbMText
10
507
20
89
30
0
40
2
41
8.47619555556
71
5
72
1
1
reset
7
romanc
210
0
220
0
230
1
50
0
73
2
44
1
0
MTEXT
5
2E7
100
AcDbEntity
8
markings
6
ByLayer
62
256
370
-1
100
AcDbMText
10
507
20
105
30
0
40
2
41
3.71428888889
71
5
72
1
1
on
7
romanc
210
0
220
0
230
1
50
0
73
2
44
1
0
MTEXT
5
2E8
100
AcDbEntity
8
markings
6
ByLayer
62
256
370
-1
100
AcDbMText
10
512.4
20
64.3
30
0
40
2
41
4.38095777778
71
4
72
1
1
off
7
romanc
210
0
220
0
230
1
50
0
73
2
44
1
0
MTEXT
5
2E9
100
AcDbEntity
8
markings
6
ByLayer
62
256
370
-1
100
AcDbMText
10
507
20
56
30
0
40
2
41
8.47619555556
71
5
72
1
1
reset
7
romanc
210
0
220
0
230
1
50
0
73
2
44
1
0
MTEXT
5
2EA
100
AcDbEntity
8
markings
6
ByLayer
62
256
370
-1
100
AcDbMText
10
507
20
72
30
0
40
2
41
3.71428888889
71
5
72
1
1
on
7
romanc
210
0
220
0
230
1
50
0
73
2
44
1
0
MTEXT
5
2EB
100
AcDbEntity
8
markings
6
ByLayer
62
256
370
-1
100
AcDbMText
10
512.4
20
30.3
30
0
40
2
41
4.38095777778
71
4
72
1
1
off
7
romanc
210
0
220
0
230
1
50
0
73
2
44
1
0
MTEXT
5
2EC
100
AcDbEntity
8
markings
6
ByLayer
62
256
370
-1
100
AcDbMText
10
507
20
22
30
0
40
2
41
8.47619555556
71
5
72
1
1
reset
7
romanc
210
0
220
0
230
1
50
0
73
2
44
1
0
MTEXT
5
2ED
100
AcDbEntity
8
markings
6
ByLayer
62
256
370
-1
100
AcDbMText
10
507
20
38
30
0
40
2
41
3.71428888889
71
5
72
1
1
on
7
romanc
210
0
220
0
230
1
50
0
73
2
44
1
0
MTEXT
5
2EE
100
AcDbEntity
8
markings
6
ByLayer
62
256
370
-1
100
AcDbMText
10
407.6
20
47.3
30
0
40
2
41
4.38095777778
71
6
72
1
1
off
7
romanc
210
0
220
0
230
1
50
360
73
2
44
1
0
MTEXT
5
2EF
100
AcDbEntity
8
markings
6
ByLayer
62
256
370
-1
100
AcDbMText
10
413
20
39
30
0
40
2
41
8.47619555556
71
5
72
1
1
reset
7
romanc
210
0
220
0
230
1
50
360
73
2
44
1
0
MTEXT
5
2F0
100
AcDbEntity
8
markings
6
ByLayer
62
256
370
-1
100
AcDbMText
10
413
20
55
30
0
40
2
41
3.71428888889
71
5
72
1
1
on
7
romanc
210
0
220
0
230
1
50
360
73
2
44
1
0
MTEXT
5
2F1
100
AcDbEntity
8
markings
6
ByLayer
62
256
370
-1
100
AcDbMText
10
407.6
20
81.3
30
0
40
2
41
4.38095777778
71
6
72
1
1
off
7
romanc
210
0
220
0
230
1
50
360
73
2
44
1
0
MTEXT
5
2F2
100
AcDbEntity
8
markings
6
ByLayer
62
256
370
-1
100
AcDbMText
10
413
20
73
30
0
40
2
41
8.47619555556
71
5
72
1
1
reset
7
romanc
210
0
220
0
230
1
50
360
73
2
44
1
0
MTEXT
5
2F3
100
AcDbEntity
8
markings
6
ByLayer
62
256
370
-1
100
AcDbMText
10
413
20
89
30
0
40
2
41
3.71428888889
71
5
72
1
1
on
7
romanc
210
0
220
0
230
1
50
360
73
2
44
1
0
MTEXT
5
2F4
100
AcDbEntity
8
markings
6
ByLayer
62
256
370
-1
100
AcDbMText
10
407.6
20
114.3
30
0
40
2
41
4.38095777778
71
6
72
1
1
off
7
romanc
210
0
220
0
230
1
50
360
73
2
44
1
0
MTEXT
5
2F5
100
AcDbEntity
8
markings
6
ByLayer
62
256
370
-1
100
AcDbMText
10
413
20
106
30
0
40
2
41
8.47619555556
71
5
72
1
1
reset
7
romanc
210
0
220
0
230
1
50
360
73
2
44
1
0
MTEXT
5
2F6
100
AcDbEntity
8
markings
6
ByLayer
62
256
370
-1
100
AcDbMText
10
413
20
122
30
0
40
2
41
3.71428888889
71
5
72
1
1
on
7
romanc
210
0
220
0
230
1
50
360
73
2
44
1
0
MTEXT
5
2F7
100
AcDbEntity
8
markings
6
ByLayer
62
256
370
-1
100
AcDbMText
10
407.6
20
148.3
30
0
40
2
41
4.38095777778
71
6
72
1
1
off
7
romanc
210
0
220
0
230
1
50
360
73
2
44
1
0
MTEXT
5
2F8
100
AcDbEntity
8
markings
6
ByLayer
62
256
370
-1
100
AcDbMText
10
413
20
140
30
0
40
2
41
8.47619555556
71
5
72
1
1
reset
7
romanc
210
0
220
0
230
1
50
360
73
2
44
1
0
MTEXT
5
2F9
100
AcDbEntity
8
markings
6
ByLayer
62
256
370
-1
100
AcDbMText
10
413
20
156
30
0
40
2
41
3.71428888889
71
5
72
1
1
on
7
romanc
210
0
220
0
230
1
50
360
73
2
44
1
0
MTEXT
5
2FA
100
AcDbEntity
8
markings
6
ByLayer
62
256
370
-1
100
AcDbMText
10
495
20
162
30
0
40
2.5
41
10.9523916667
71
2
72
1
1
clock
7
romanc
210
0
220
0
230
1
50
0
73
2
44
1
0
MTEXT
5
2FB
100
AcDbEntity
8
markings
6
ByLayer
62
256
370
-1
100
AcDbMText
10
425
20
29
30
0
40
2
41
5.42857333333
71
2
72
1
1
out
7
romanc
210
0
220
0
230
1
50
0
73
2
44
1
0
CIRCLE
5
2FC
100
AcDbEntity
8
0
6
ByLayer
62
256
370
-1
100
AcDbCircle
10
405
20
175
40
1.5
0
CIRCLE
5
2FD
100
AcDbEntity
8
0
6
ByLayer
62
256
370
-1
100
AcDbCircle
10
515
20
5
40
1.5
0
CIRCLE
5
2FE
100
AcDbEntity
8
0
6
ByLayer
62
256
370
-1
100
AcDbCircle
10
305
20
5
40
1.5
0
CIRCLE
5
2FF
100
AcDbEntity
8
0
6
ByLayer
62
256
370
-1
100
AcDbCircle
10
330
20
148
40
3.3
0
LINE
5
300
100
AcDbEntity
8
markings
6
ByLayer
62
256
370
-1
100
AcDbLine
10
330
20
148
11
317
21
148
0
LINE
5
301
100
AcDbEntity
8
markings
6
ByLayer
62
256
370
-1
100
AcDbLine
10
330
20
148
11
318.741669751
21
141.5
0
LINE
5
302
100
AcDbEntity
8
markings
6
ByLayer
62
256
370
-1
100
AcDbLine
10
330
20
148
11
323.5
21
136.741669751
0
LINE
5
303
100
AcDbEntity
8
markings
6
ByLayer
62
256
370
-1
100
AcDbLine
10
330
20
148
11
336.5
21
136.741669751
0
LINE
5
304
100
AcDbEntity
8
markings
6
ByLayer
62
256
370
-1
100
AcDbLine
10
330
20
148
11
343
21
148
0
LINE
5
305
100
AcDbEntity
8
markings
6
ByLayer
62
256
370
-1
100
AcDbLine
10
330
20
148
11
341.258330249
21
154.5
0
LINE
5
306
100
AcDbEntity
8
markings
6
ByLayer
62
256
370
-1
100
AcDbLine
10
330
20
148
11
330
21
161
0
LINE
5
307
100
AcDbEntity
8
markings
6
ByLayer
62
256
370
-1
100
AcDbLine
10
330
20
148
11
323.5
21
159.258330249
0
LINE
5
308
100
AcDbEntity
8
markings
6
ByLayer
62
256
370
-1
100
AcDbLine
10
330
20
148
11
318.741669751
21
154.5
0
LINE
5
309
100
AcDbEntity
8
markings
6
ByLayer
62
256
370
-1
100
AcDbLine
10
330
20
148
11
336.5
21
159.258
0
CIRCLE
5
30A
100
AcDbEntity
8
0
6
ByLayer
62
256
370
-1
100
AcDbCircle
10
360
20
131
40
3.3
0
LINE
5
30B
100
AcDbEntity
8
markings
6
ByLayer
62
256
370
-1
100
AcDbLine
10
360
20
131
11
347
21
131
0
LINE
5
30C
100
AcDbEntity
8
markings
6
ByLayer
62
256
370
-1
100
AcDbLine
10
360
20
131
11
353.5
21
119.741669751
0
LINE
5
30D
100
AcDbEntity
8
markings
6
ByLayer
62
256
370
-1
100
AcDbLine
10
360
20
131
11
366.5
21
119.741669751
0
LINE
5
30E
100
AcDbEntity
8
markings
6
ByLayer
62
256
370
-1
100
AcDbLine
10
360
20
131
11
371.258330249
21
124.5
0
LINE
5
30F
100
AcDbEntity
8
markings
6
ByLayer
62
256
370
-1
100
AcDbLine
10
360
20
131
11
373
21
131
0
LINE
5
310
100
AcDbEntity
8
markings
6
ByLayer
62
256
370
-1
100
AcDbLine
10
360
20
131
11
371.258330249
21
137.5
0
LINE
5
311
100
AcDbEntity
8
markings
6
ByLayer
62
256
370
-1
100
AcDbLine
10
360
20
131
11
360
21
144
0
LINE
5
312
100
AcDbEntity
8
markings
6
ByLayer
62
256
370
-1
100
AcDbLine
10
360
20
131
11
353.5
21
142.258330249
0
LINE
5
313
100
AcDbEntity
8
markings
6
ByLayer
62
256
370
-1
100
AcDbLine
10
360
20
131
11
366.5
21
142.258
0
LINE
5
314
100
AcDbEntity
8
markings
6
ByLayer
62
256
370
-1
100
AcDbLine
10
360
20
131
11
330
21
148
0
CIRCLE
5
315
100
AcDbEntity
8
0
6
ByLayer
62
256
370
-1
100
AcDbCircle
10
330
20
114
40
3.3
0
LINE
5
316
100
AcDbEntity
8
markings
6
ByLayer
62
256
370
-1
100
AcDbLine
10
330
20
114
11
317
21
114
0
LINE
5
317
100
AcDbEntity
8
markings
6
ByLayer
62
256
370
-1
100
AcDbLine
10
330
20
114
11
318.741669751
21
107.5
0
LINE
5
318
100
AcDbEntity
8
markings
6
ByLayer
62
256
370
-1
100
AcDbLine
10
330
20
114
11
323.5
21
102.741669751
0
LINE
5
319
100
AcDbEntity
8
markings
6
ByLayer
62
256
370
-1
100
AcDbLine
10
330
20
114
11
336.5
21
102.741669751
0
LINE
5
31A
100
AcDbEntity
8
markings
6
ByLayer
62
256
370
-1
100
AcDbLine
10
330
20
114
11
343
21
114
0
LINE
5
31B
100
AcDbEntity
8
markings
6
ByLayer
62
256
370
-1
100
AcDbLine
10
330
20
114
11
330
21
127
0
LINE
5
31C
100
AcDbEntity
8
markings
6
ByLayer
62
256
370
-1
100
AcDbLine
10
330
20
114
11
323.5
21
125.258330249
0
LINE
5
31D
100
AcDbEntity
8
markings
6
ByLayer
62
256
370
-1
100
AcDbLine
10
330
20
114
11
318.741669751
21
120.5
0
LINE
5
31E
100
AcDbEntity
8
markings
6
ByLayer
62
256
370
-1
100
AcDbLine
10
330
20
114
11
336.5
21
125.258
0
CIRCLE
5
31F
100
AcDbEntity
8
0
6
ByLayer
62
256
370
-1
100
AcDbCircle
10
360
20
97
40
3.3
0
LINE
5
320
100
AcDbEntity
8
markings
6
ByLayer
62
256
370
-1
100
AcDbLine
10
360
20
97
11
347
21
97
0
LINE
5
321
100
AcDbEntity
8
markings
6
ByLayer
62
256
370
-1
100
AcDbLine
10
360
20
97
11
353.5
21
85.741669751
0
LINE
5
322
100
AcDbEntity
8
markings
6
ByLayer
62
256
370
-1
100
AcDbLine
10
360
20
97
11
366.5
21
85.741669751
0
LINE
5
323
100
AcDbEntity
8
markings
6
ByLayer
62
256
370
-1
100
AcDbLine
10
360
20
97
11
371.258330249
21
90.5
0
LINE
5
324
100
AcDbEntity
8
markings
6
ByLayer
62
256
370
-1
100
AcDbLine
10
360
20
97
11
373
21
97
0
LINE
5
325
100
AcDbEntity
8
markings
6
ByLayer
62
256
370
-1
100
AcDbLine
10
360
20
97
11
371.258330249
21
103.5
0
LINE
5
326
100
AcDbEntity
8
markings
6
ByLayer
62
256
370
-1
100
AcDbLine
10
360
20
97
11
360
21
110
0
LINE
5
327
100
AcDbEntity
8
markings
6
ByLayer
62
256
370
-1
100
AcDbLine
10
360
20
97
11
353.5
21
108.258330249
0
LINE
5
328
100
AcDbEntity
8
markings
6
ByLayer
62
256
370
-1
100
AcDbLine
10
360
20
97
11
366.5
21
108.258
0
LINE
5
329
100
AcDbEntity
8
markings
6
ByLayer
62
256
370
-1
100
AcDbLine
10
360
20
97
11
330
21
114
0
CIRCLE
5
32A
100
AcDbEntity
8
0
6
ByLayer
62
256
370
-1
100
AcDbCircle
10
330
20
81
40
3.3
0
LINE
5
32B
100
AcDbEntity
8
markings
6
ByLayer
62
256
370
-1
100
AcDbLine
10
330
20
81
11
317
21
81
0
LINE
5
32C
100
AcDbEntity
8
markings
6
ByLayer
62
256
370
-1
100
AcDbLine
10
330
20
81
11
318.741669751
21
74.5
0
LINE
5
32D
100
AcDbEntity
8
markings
6
ByLayer
62
256
370
-1
100
AcDbLine
10
330
20
81
11
323.5
21
69.741669751
0
LINE
5
32E
100
AcDbEntity
8
markings
6
ByLayer
62
256
370
-1
100
AcDbLine
10
330
20
81
11
336.5
21
69.741669751
0
LINE
5
32F
100
AcDbEntity
8
markings
6
ByLayer
62
256
370
-1
100
AcDbLine
10
330
20
81
11
343
21
81
0
LINE
5
330
100
AcDbEntity
8
markings
6
ByLayer
62
256
370
-1
100
AcDbLine
10
330
20
81
11
330
21
94
0
LINE
5
331
100
AcDbEntity
8
markings
6
ByLayer
62
256
370
-1
100
AcDbLine
10
330
20
81
11
323.5
21
92.258330249
0
LINE
5
332
100
AcDbEntity
8
markings
6
ByLayer
62
256
370
-1
100
AcDbLine
10
330
20
81
11
318.741669751
21
87.5
0
LINE
5
333
100
AcDbEntity
8
markings
6
ByLayer
62
256
370
-1
100
AcDbLine
10
330
20
81
11
336.5
21
92.258
0
CIRCLE
5
334
100
AcDbEntity
8
0
6
ByLayer
62
256
370
-1
100
AcDbCircle
10
360
20
64
40
3.3
0
LINE
5
335
100
AcDbEntity
8
markings
6
ByLayer
62
256
370
-1
100
AcDbLine
10
360
20
64
11
347
21
64
0
LINE
5
336
100
AcDbEntity
8
markings
6
ByLayer
62
256
370
-1
100
AcDbLine
10
360
20
64
11
353.5
21
52.741669751
0
LINE
5
337
100
AcDbEntity
8
markings
6
ByLayer
62
256
370
-1
100
AcDbLine
10
360
20
64
11
366.5
21
52.741669751
0
LINE
5
338
100
AcDbEntity
8
markings
6
ByLayer
62
256
370
-1
100
AcDbLine
10
360
20
64
11
371.258330249
21
57.5
0
LINE
5
339
100
AcDbEntity
8
markings
6
ByLayer
62
256
370
-1
100
AcDbLine
10
360
20
64
11
373
21
64
0
LINE
5
33A
100
AcDbEntity
8
markings
6
ByLayer
62
256
370
-1
100
AcDbLine
10
360
20
64
11
371.258330249
21
70.5
0
LINE
5
33B
100
AcDbEntity
8
markings
6
ByLayer
62
256
370
-1
100
AcDbLine
10
360
20
64
11
360
21
77
0
LINE
5
33C
100
AcDbEntity
8
markings
6
ByLayer
62
256
370
-1
100
AcDbLine
10
360
20
64
11
353.5
21
75.258330249
0
LINE
5
33D
100
AcDbEntity
8
markings
6
ByLayer
62
256
370
-1
100
AcDbLine
10
360
20
64
11
366.5
21
75.258
0
LINE
5
33E
100
AcDbEntity
8
markings
6
ByLayer
62
256
370
-1
100
AcDbLine
10
360
20
64
11
330
21
81
0
CIRCLE
5
33F
100
AcDbEntity
8
0
6
ByLayer
62
256
370
-1
100
AcDbCircle
10
330
20
47
40
3.3
0
LINE
5
340
100
AcDbEntity
8
markings
6
ByLayer
62
256
370
-1
100
AcDbLine
10
330
20
47
11
317
21
47
0
LINE
5
341
100
AcDbEntity
8
markings
6
ByLayer
62
256
370
-1
100
AcDbLine
10
330
20
47
11
318.741669751
21
40.5
0
LINE
5
342
100
AcDbEntity
8
markings
6
ByLayer
62
256
370
-1
100
AcDbLine
10
330
20
47
11
323.5
21
35.741669751
0
LINE
5
343
100
AcDbEntity
8
markings
6
ByLayer
62
256
370
-1
100
AcDbLine
10
330
20
47
11
336.5
21
35.741669751
0
LINE
5
344
100
AcDbEntity
8
markings
6
ByLayer
62
256
370
-1
100
AcDbLine
10
330
20
47
11
343
21
47
0
LINE
5
345
100
AcDbEntity
8
markings
6
ByLayer
62
256
370
-1
100
AcDbLine
10
330
20
47
11
330
21
60
0
LINE
5
346
100
AcDbEntity
8
markings
6
ByLayer
62
256
370
-1
100
AcDbLine
10
330
20
47
11
323.5
21
58.258330249
0
LINE
5
347
100
AcDbEntity
8
markings
6
ByLayer
62
256
370
-1
100
AcDbLine
10
330
20
47
11
318.741669751
21
53.5
0
LINE
5
348
100
AcDbEntity
8
markings
6
ByLayer
62
256
370
-1
100
AcDbLine
10
330
20
47
11
336.5
21
58.258
0
CIRCLE
5
349
100
AcDbEntity
8
0
6
ByLayer
62
256
370
-1
100
AcDbCircle
10
360
20
30
40
3.3
0
LINE
5
34A
100
AcDbEntity
8
markings
6
ByLayer
62
256
370
-1
100
AcDbLine
10
360
20
30
11
347
21
30
0
LINE
5
34B
100
AcDbEntity
8
markings
6
ByLayer
62
256
370
-1
100
AcDbLine
10
360
20
30
11
348.741669751
21
23.5
0
LINE
5
34C
100
AcDbEntity
8
markings
6
ByLayer
62
256
370
-1
100
AcDbLine
10
360
20
30
11
353.5
21
18.741669751
0
LINE
5
34D
100
AcDbEntity
8
markings
6
ByLayer
62
256
370
-1
100
AcDbLine
10
360
20
30
11
366.5
21
18.741669751
0
LINE
5
34E
100
AcDbEntity
8
markings
6
ByLayer
62
256
370
-1
100
AcDbLine
10
360
20
30
11
371.258330249
21
23.5
0
LINE
5
34F
100
AcDbEntity
8
markings
6
ByLayer
62
256
370
-1
100
AcDbLine
10
360
20
30
11
373
21
30
0
LINE
5
350
100
AcDbEntity
8
markings
6
ByLayer
62
256
370
-1
100
AcDbLine
10
360
20
30
11
371.258330249
21
36.5
0
LINE
5
351
100
AcDbEntity
8
markings
6
ByLayer
62
256
370
-1
100
AcDbLine
10
360
20
30
11
360
21
43
0
LINE
5
352
100
AcDbEntity
8
markings
6
ByLayer
62
256
370
-1
100
AcDbLine
10
360
20
30
11
353.5
21
41.258330249
0
LINE
5
353
100
AcDbEntity
8
markings
6
ByLayer
62
256
370
-1
100
AcDbLine
10
360
20
30
11
366.5
21
41.258
0
LINE
5
354
100
AcDbEntity
8
markings
6
ByLayer
62
256
370
-1
100
AcDbLine
10
360
20
30
11
330
21
47
0
LINE
5
355
100
AcDbEntity
8
markings
6
ByLayer
62
256
370
-1
100
AcDbLine
10
360
20
131
11
330
21
114
0
LINE
5
356
100
AcDbEntity
8
markings
6
ByLayer
62
256
370
-1
100
AcDbLine
10
360
20
97
11
330
21
81
0
LINE
5
357
100
AcDbEntity
8
markings
6
ByLayer
62
256
370
-1
100
AcDbLine
10
360
20
64
11
330
21
47
0
CIRCLE
5
358
100
AcDbEntity
8
0
6
ByLayer
62
256
370
-1
100
AcDbCircle
10
385
20
175
40
1.5
0
LINE
5
359
100
AcDbEntity
8
0
6
ByLayer
62
256
370
-1
100
AcDbLine
10
300
20
0
11
390
21
0
0
LINE
5
35A
100
AcDbEntity
8
0
6
ByLayer
62
256
370
-1
100
AcDbLine
10
390
20
0
11
390
21
180
0
LINE
5
35B
100
AcDbEntity
8
0
6
ByLayer
62
256
370
-1
100
AcDbLine
10
390
20
180
11
300
21
180
0
LINE
5
35C
100
AcDbEntity
8
0
6
ByLayer
62
256
370
-1
100
AcDbLine
10
300
20
180
11
300
21
0
0
CIRCLE
5
35D
100
AcDbEntity
8
0
6
ByLayer
62
256
370
-1
100
AcDbCircle
10
310
20
148
40
3
0
CIRCLE
5
35E
100
AcDbEntity
8
0
6
ByLayer
62
256
370
-1
100
AcDbCircle
10
310
20
114
40
3
0
CIRCLE
5
35F
100
AcDbEntity
8
0
6
ByLayer
62
256
370
-1
100
AcDbCircle
10
310
20
81
40
3
0
CIRCLE
5
360
100
AcDbEntity
8
0
6
ByLayer
62
256
370
-1
100
AcDbCircle
10
310
20
47
40
3
0
CIRCLE
5
361
100
AcDbEntity
8
0
6
ByLayer
62
256
370
-1
100
AcDbCircle
10
380
20
131
40
3
0
CIRCLE
5
362
100
AcDbEntity
8
0
6
ByLayer
62
256
370
-1
100
AcDbCircle
10
380
20
97
40
3
0
CIRCLE
5
363
100
AcDbEntity
8
0
6
ByLayer
62
256
370
-1
100
AcDbCircle
10
380
20
64
40
3
0
CIRCLE
5
364
100
AcDbEntity
8
0
6
ByLayer
62
256
370
-1
100
AcDbCircle
10
380
20
30
40
3
0
CIRCLE
5
365
100
AcDbEntity
8
0
6
ByLayer
62
256
370
-1
100
AcDbCircle
10
370
20
154
40
3.8
0
CIRCLE
5
366
100
AcDbEntity
8
0
6
ByLayer
62
256
370
-1
100
AcDbCircle
10
320
20
22
40
3.8
0
MTEXT
5
367
100
AcDbEntity
8
markings
6
ByLayer
62
256
370
-1
100
AcDbMText
10
345
20
172
30
0
40
2.5
41
33.4226416667
71
2
72
1
1
4017 sequencer
7
romanc
210
0
220
0
230
1
50
0
73
2
44
1
0
MTEXT
5
368
100
AcDbEntity
8
markings
6
ByLayer
62
256
370
-1
100
AcDbMText
10
370
20
162
30
0
40
2.5
41
10.9523916667
71
2
72
1
1
clock
7
romanc
210
0
220
0
230
1
50
0
73
2
44
1
0
MTEXT
5
369
100
AcDbEntity
8
markings
6
ByLayer
62
256
370
-1
100
AcDbMText
10
320
20
29
30
0
40
2
41
5.42857333333
71
2
72
1
1
out
7
romanc
210
0
220
0
230
1
50
0
73
2
44
1
0
CIRCLE
5
36A
100
AcDbEntity
8
0
6
ByLayer
62
256
370
-1
100
AcDbCircle
10
385
20
5
40
1.5
0
CIRCLE
5
36B
100
AcDbEntity
8
0
6
ByLayer
62
256
370
-1
100
AcDbCircle
10
305
20
175
40
1.5
0
ENDSEC
0
SECTION
2
OBJECTS
0
DICTIONARY
5
C
330
0
100
AcDbDictionary
281
1
3
ACAD_GROUP
350
D
0
DICTIONARY
5
D
330
C
100
AcDbDictionary
281
1
0
ENDSEC
0
EOF
